<?xml version="1.0" encoding="UTF-8"?>
<svg version="1.1" xmlns="http://www.w3.org/2000/svg" width="100" height="100">
<path d="M0 0 C7.06035613 6.35633201 11.32085032 15.3182152 12.1484375 24.671875 C12.25810121 35.76984287 10.89751666 45.12052112 3.63671875 54.02734375 C-4.79218048 62.56453719 -13.66737247 66.11573998 -25.5 66.375 C-36.15819233 66.32845768 -44.77950585 63.07471108 -52.5625 55.6484375 C-58.1875 49.50961538 -58.1875 49.50961538 -58.1875 45.875 C-59.8375 45.875 -61.4875 45.875 -63.1875 45.875 C-64.3125 43.5625 -64.3125 43.5625 -65.1875 40.875 C-64.5275 39.885 -63.8675 38.895 -63.1875 37.875 C-63.05846695 35.30406027 -63.05846695 35.30406027 -63.25 32.4375 C-63.40336994 20.87898382 -60.25947417 10.42468642 -52.30078125 1.83984375 C-36.78327485 -12.51918476 -16.95757437 -11.30504958 0 0 Z " fill="#FADEA0" transform="translate(75.1875,22.125)"/>
<path d="M0 0 C1.11375 1.175625 1.11375 1.175625 2.25 2.375 C5.46538642 5.4442325 7.84936872 6.61645624 12 8 C13.60546875 10.21484375 13.60546875 10.21484375 15.1875 12.9375 C15.71730469 13.83339844 16.24710938 14.72929688 16.79296875 15.65234375 C18 18 18 18 18 20 C20.31 20.66 22.62 21.32 25 22 C24.01 22.66 23.02 23.32 22 24 C22.66 24.99 23.32 25.98 24 27 C22.716961 29.17221487 21.42427887 31.3375324 20.125 33.5 C19.76019531 34.12003906 19.39539063 34.74007812 19.01953125 35.37890625 C18.0677482 36.95367458 17.03889741 38.48129053 16 40 C15.34 40 14.68 40 14 40 C12.53417645 42.14281033 11.18876486 44.26706396 9.875 46.5 C9.50246094 47.12003906 9.12992188 47.74007812 8.74609375 48.37890625 C7.82421047 49.91537838 6.91126525 51.45720675 6 53 C5.40703125 52.78472656 4.8140625 52.56945312 4.203125 52.34765625 C1.99606115 51.76107268 1.99606115 51.76107268 0.296875 52.99609375 C-0.46882813 53.70958984 -0.46882813 53.70958984 -1.25 54.4375 C-2.61125 55.7059375 -2.61125 55.7059375 -4 57 C-8.46934477 50.79172928 -12.73844229 44.45573328 -16.9375 38.0625 C-17.43419189 37.31685791 -17.93088379 36.57121582 -18.44262695 35.80297852 C-19.13424927 34.74228149 -19.13424927 34.74228149 -19.83984375 33.66015625 C-20.25613037 33.02730713 -20.67241699 32.39445801 -21.10131836 31.74243164 C-22 30 -22 30 -22 27 C-22.99 27 -23.98 27 -25 27 C-24.67 26.34 -24.34 25.68 -24 25 C-22.33333333 24.66666667 -20.66666667 24.33333333 -19 24 C-18.67 23.34 -18.34 22.68 -18 22 C-20.31 22.33 -22.62 22.66 -25 23 C-22.377486 21.25165733 -21.00515522 20.48470246 -18 20 C-17.34 20.33 -16.68 20.66 -16 21 C-15.34 19.35 -14.68 17.7 -14 16 C-13 18 -13 18 -14 22 C-11.03 21.34 -8.06 20.68 -5 20 C-5.28109113 18.35232753 -5.57518526 16.70686855 -5.875 15.0625 C-6.03742187 14.14597656 -6.19984375 13.22945312 -6.3671875 12.28515625 C-6.57601562 11.53105469 -6.78484375 10.77695312 -7 10 C-7.66 9.67 -8.32 9.34 -9 9 C-8.34 7.35 -7.68 5.7 -7 4 C-4.625 4.25 -4.625 4.25 -2 5 C-0.8125 7 -0.8125 7 0 9 C0.66 9.33 1.32 9.66 2 10 C1.67 8.906875 1.34 7.81375 1 6.6875 C0 3 0 3 0 0 Z " fill="#84C8B5" transform="translate(50,23)"/>
<path d="M0 0 C1.24546405 2.49092811 0.7767578 3.41080733 0 6 C0.62648438 5.84402344 1.25296875 5.68804687 1.8984375 5.52734375 C3.12433594 5.23537109 3.12433594 5.23537109 4.375 4.9375 C5.18710937 4.74027344 5.99921875 4.54304688 6.8359375 4.33984375 C9 4 9 4 11 5 C13.91892436 5.12690975 16.42557774 5.15956174 19.25 4.375 C20.11625 4.189375 20.11625 4.189375 21 4 C21.66 4.66 22.32 5.32 23 6 C20.69 6.33 18.38 6.66 16 7 C16.33 8.32 16.66 9.64 17 11 C12.37540756 12.17700048 7.92133538 12.11408412 3.1875 12.0625 C2.39923828 12.05798828 1.61097656 12.05347656 0.79882812 12.04882812 C-1.13414761 12.03711312 -3.06708393 12.01917998 -5 12 C-4.30621489 15.26011642 -3.54106009 16.79038253 -1 19 C0.65 17.35 2.3 15.7 4 14 C4.2475 14.61875 4.495 15.2375 4.75 15.875 C6.20628639 18.35068687 7.37812506 18.95125002 10 20 C10 18.35 10 16.7 10 15 C12.83266339 17.83266339 13.45774515 21.24973427 14.5625 25 C15.99634159 30.10847628 15.99634159 30.10847628 18 35 C15.36 36.98 12.72 38.96 10 41 C5.55257183 34.77360056 1.26284136 28.45768769 -2.9375 22.0625 C-3.43419189 21.31685791 -3.93088379 20.57121582 -4.44262695 19.80297852 C-5.13424927 18.74228149 -5.13424927 18.74228149 -5.83984375 17.66015625 C-6.25613037 17.02730713 -6.67241699 16.39445801 -7.10131836 15.74243164 C-8 14 -8 14 -8 11 C-8.99 11 -9.98 11 -11 11 C-10.67 10.34 -10.34 9.68 -10 9 C-8.33333333 8.66666667 -6.66666667 8.33333333 -5 8 C-4.67 7.34 -4.34 6.68 -4 6 C-6.31 6.33 -8.62 6.66 -11 7 C-8.377486 5.25165733 -7.00515522 4.48470246 -4 4 C-3.34 4.33 -2.68 4.66 -2 5 C-1.34 3.35 -0.68 1.7 0 0 Z " fill="#7FBEAA" transform="translate(36,39)"/>
<path d="M0 0 C1.11375 1.175625 1.11375 1.175625 2.25 2.375 C5.46538642 5.4442325 7.84936872 6.61645624 12 8 C15.04849079 12.02400785 15.93313313 16.15806576 17 21 C13.08455103 22.95772448 9.07994639 22.0199866 5 21 C4.34 21.33 3.68 21.66 3 22 C-2.53846154 22.23076923 -2.53846154 22.23076923 -5 21 C-5.35557331 18.74053416 -5.44330506 16.5100223 -5.55859375 14.2265625 C-6.08126655 11.59007139 -6.96066651 10.68584902 -9 9 C-8.34 7.35 -7.68 5.7 -7 4 C-4.625 4.25 -4.625 4.25 -2 5 C-0.8125 7 -0.8125 7 0 9 C0.66 9.33 1.32 9.66 2 10 C1.67 8.906875 1.34 7.81375 1 6.6875 C0 3 0 3 0 0 Z " fill="#B9D7D5" transform="translate(50,23)"/>
<path d="M0 0 C1.5 1.375 1.5 1.375 3 3 C3 3.66 3 4.32 3 5 C5.31 5.66 7.62 6.32 10 7 C9.01 7.66 8.02 8.32 7 9 C7.99 10.485 7.99 10.485 9 12 C7.716961 14.17221487 6.42427887 16.3375324 5.125 18.5 C4.76019531 19.12003906 4.39539063 19.74007812 4.01953125 20.37890625 C3.0677482 21.95367458 2.03889741 23.48129053 1 25 C0.34 25 -0.32 25 -1 25 C-2.46582355 27.14281033 -3.81123514 29.26706396 -5.125 31.5 C-5.68380859 32.43005859 -5.68380859 32.43005859 -6.25390625 33.37890625 C-7.17578953 34.91537838 -8.08873475 36.45720675 -9 38 C-9.66 37.34 -10.32 36.68 -11 36 C-10.79296875 33.75 -10.79296875 33.75 -10.1875 31 C-9.22683523 26.32599641 -8.6188468 21.75059695 -8.24609375 16.99609375 C-8 15 -8 15 -7 13 C-8.32 12.67 -9.64 12.34 -11 12 C-9.37681021 11.63762737 -7.7513642 11.28534843 -6.125 10.9375 C-5.22007813 10.74027344 -4.31515625 10.54304688 -3.3828125 10.33984375 C-1 10 -1 10 1 11 C1 10.01 1 9.02 1 8 C-1.31 8 -3.62 8 -6 8 C-6 7.67 -6 7.34 -6 7 C-3.36 6.67 -0.72 6.34 2 6 C1.34 4.02 0.68 2.04 0 0 Z " fill="#189493" transform="translate(65,38)"/>
<path d="M0 0 C1.24546405 2.49092811 0.7767578 3.41080733 0 6 C0.62648438 5.84402344 1.25296875 5.68804687 1.8984375 5.52734375 C3.12433594 5.23537109 3.12433594 5.23537109 4.375 4.9375 C5.18710937 4.74027344 5.99921875 4.54304688 6.8359375 4.33984375 C9 4 9 4 11 5 C13.91892436 5.12690975 16.42557774 5.15956174 19.25 4.375 C20.11625 4.189375 20.11625 4.189375 21 4 C21.66 4.66 22.32 5.32 23 6 C20.69 6.33 18.38 6.66 16 7 C16.33 8.32 16.66 9.64 17 11 C12.37540756 12.17700048 7.92133538 12.11408412 3.1875 12.0625 C2.39923828 12.05798828 1.61097656 12.05347656 0.79882812 12.04882812 C-1.13414761 12.03711312 -3.06708393 12.01917998 -5 12 C-4.42264545 14.6603592 -3.84024939 16.25805868 -2.375 18.625 C-1.92125 19.40875 -1.4675 20.1925 -1 21 C-1.33 21.66 -1.66 22.32 -2 23 C-3.00842453 21.56839732 -4.00647891 20.12948547 -5 18.6875 C-5.556875 17.88699219 -6.11375 17.08648437 -6.6875 16.26171875 C-8 14 -8 14 -8 11 C-8.99 11 -9.98 11 -11 11 C-10.67 10.34 -10.34 9.68 -10 9 C-8.33333333 8.66666667 -6.66666667 8.33333333 -5 8 C-4.67 7.34 -4.34 6.68 -4 6 C-6.31 6.33 -8.62 6.66 -11 7 C-8.377486 5.25165733 -7.00515522 4.48470246 -4 4 C-3.34 4.33 -2.68 4.66 -2 5 C-1.34 3.35 -0.68 1.7 0 0 Z " fill="#7C7A73" transform="translate(36,39)"/>
<path d="M0 0 C1.5 1.375 1.5 1.375 3 3 C3 3.66 3 4.32 3 5 C5.31 5.66 7.62 6.32 10 7 C9.01 7.66 8.02 8.32 7 9 C7.99 10.485 7.99 10.485 9 12 C7.74210557 14.17517137 6.46994813 16.3393781 5.1875 18.5 C4.83107422 19.12003906 4.47464844 19.74007812 4.10742188 20.37890625 C3.15368233 21.9713888 2.08302607 23.49246084 1 25 C0.01 25 -0.98 25 -2 25 C-2.125 22.125 -2.125 22.125 -2 19 C-1.34 18.34 -0.68 17.68 0 17 C0 15.68 0 14.36 0 13 C-1.65 12.67 -3.3 12.34 -5 12 C-3.125 10.9375 -3.125 10.9375 -1 10 C-0.34 10.33 0.32 10.66 1 11 C1 10.01 1 9.02 1 8 C-1.31 8 -3.62 8 -6 8 C-6 7.67 -6 7.34 -6 7 C-3.36 6.67 -0.72 6.34 2 6 C1.34 4.02 0.68 2.04 0 0 Z " fill="#32746F" transform="translate(65,38)"/>
<path d="M0 0 C5.44693314 -0.09688221 10.63904667 -0.12862175 16 1 C16.33 3.97 16.66 6.94 17 10 C13.73539027 8.19587357 12.11070205 7.16605307 10 4 C7.03 6.475 7.03 6.475 4 9 C0 4.5 0 4.5 0 0 Z " fill="#BBE2E0" transform="translate(30,50)"/>
<path d="M0 0 C3.58050131 4.17255271 3.26656798 6.66864045 3 12 C-1.455 13.485 -1.455 13.485 -6 15 C-7 12 -7 12 -5.56640625 9.08203125 C-4.90511719 8.00308594 -4.24382813 6.92414062 -3.5625 5.8125 C-2.90378906 4.72582031 -2.24507812 3.63914063 -1.56640625 2.51953125 C-1.04949219 1.68808594 -0.53257813 0.85664063 0 0 Z " fill="#FAF9F9" transform="translate(42,31)"/>
<path d="M0 0 C2.28459758 2.28459758 2.97129748 4.12537344 4.125 7.125 C4.47820313 8.03507812 4.83140625 8.94515625 5.1953125 9.8828125 C5.46085937 10.58148438 5.72640625 11.28015625 6 12 C3.36 13.98 0.72 15.96 -2 18 C-2.99 16.68 -3.98 15.36 -5 14 C-4.67 13.34 -4.34 12.68 -4 12 C-3.34 12 -2.68 12 -2 12 C-1.34 8.04 -0.68 4.08 0 0 Z " fill="#0E9D9C" transform="translate(48,62)"/>
<path d="M0 0 C2.475 0.99 2.475 0.99 5 2 C5.04254356 3.99954746 5.04080783 6.00041636 5 8 C4 9 4 9 0.9375 9.0625 C-0.031875 9.041875 -1.00125 9.02125 -2 9 C-2.66 7.35 -3.32 5.7 -4 4 C-2.68 2.68 -1.36 1.36 0 0 Z " fill="#F0BB18" transform="translate(82,11)"/>
<path d="M0 0 C2.5 -0.3125 2.5 -0.3125 5 0 C5.66 0.66 6.32 1.32 7 2 C6.44444444 6.55555556 6.44444444 6.55555556 5 8 C3.33382885 8.04063832 1.66611905 8.042721 0 8 C-1.125 5.6875 -1.125 5.6875 -2 3 C-1.34 2.01 -0.68 1.02 0 0 Z " fill="#FBCD5B" transform="translate(12,60)"/>
<path d="M0 0 C1.65 0 3.3 0 5 0 C4.85848172 2.0836309 4.71162064 4.16689938 4.5625 6.25 C4.48128906 7.41015625 4.40007813 8.5703125 4.31640625 9.765625 C4.06752213 12.30977376 3.71885058 14.55953248 3 17 C2.34 17 1.68 17 1 17 C0.1679418 11.27959989 -0.12036664 5.77759884 0 0 Z " fill="#BBE1DF" transform="translate(53,51)"/>
<path d="M0 0 C1.09570312 0.10183594 2.19140625 0.20367187 3.3203125 0.30859375 C4.16335937 0.39238281 5.00640625 0.47617187 5.875 0.5625 C5.875 1.5525 5.875 2.5425 5.875 3.5625 C3.91735617 3.75706705 1.95884679 3.94294247 0 4.125 C-1.09054688 4.22941406 -2.18109375 4.33382812 -3.3046875 4.44140625 C-6.125 4.5625 -6.125 4.5625 -8.125 3.5625 C-8.125 2.5725 -8.125 1.5825 -8.125 0.5625 C-5.28943413 -0.85528293 -3.1341294 -0.30007622 0 0 Z " fill="#B7DFDC" transform="translate(60.125,45.4375)"/>
<path d="M0 0 C0.763125 0.309375 1.52625 0.61875 2.3125 0.9375 C4.18789677 1.67893593 6.08684652 2.36228217 8 3 C9.75 5.4375 9.75 5.4375 11 8 C10.67 8.66 10.34 9.32 10 10 C4.98343041 8.5666944 2.98547118 6.09436048 0 2 C0 1.34 0 0.68 0 0 Z " fill="#8B8B84" transform="translate(54,28)"/>
<path d="M0 0 C1.65 0 3.3 0 5 0 C5.80967438 2.91482778 6.21845993 4.46113217 5.0625 7.3125 C4.5365625 8.1478125 4.5365625 8.1478125 4 9 C0 3.375 0 3.375 0 0 Z " fill="#7EC5B1" transform="translate(60,50)"/>
<path d="M0 0 C1.5 1.375 1.5 1.375 3 3 C3 3.66 3 4.32 3 5 C5.31 5.66 7.62 6.32 10 7 C7.6441079 8.48333947 6.48337396 9.07838497 3.6875 8.625 C2.800625 8.41875 1.91375 8.2125 1 8 C-1.33301986 7.96175377 -3.66711508 7.95425716 -6 8 C-6 7.67 -6 7.34 -6 7 C-3.36 6.67 -0.72 6.34 2 6 C1.34 4.02 0.68 2.04 0 0 Z " fill="#65554B" transform="translate(65,38)"/>
<path d="M0 0 C2.97 0.495 2.97 0.495 6 1 C5.25 5.75 5.25 5.75 3 8 C0.37613513 4.93882432 0 4.26826873 0 0 Z " fill="#84CAB6" transform="translate(30,50)"/>
<path d="M0 0 C0.33 0 0.66 0 1 0 C1.33 1.65 1.66 3.3 2 5 C2.66 4.67 3.32 4.34 4 4 C2.8141763 7.37503669 1.72426311 9.64722731 -1 12 C-2.3609623 9.2780754 -1.70366248 7.8168043 -1.0625 4.875 C-0.86785156 3.96492188 -0.67320313 3.05484375 -0.47265625 2.1171875 C-0.31667969 1.41851562 -0.16070312 0.71984375 0 0 Z " fill="#4B6E69" transform="translate(56,64)"/>
<path d="M0 0 C2.64 0.33 5.28 0.66 8 1 C8 1.99 8 2.98 8 4 C5.36 4.33 2.72 4.66 0 5 C0 3.35 0 1.7 0 0 Z " fill="#78C2AF" transform="translate(58,45)"/>
<path d="M0 0 C1.875 0.25 1.875 0.25 4 1 C5.25 3.0625 5.25 3.0625 6 5 C3 6 3 6 0 5 C0 3.35 0 1.7 0 0 Z " fill="#079C9C" transform="translate(66,45)"/>
<path d="M0 0 C0.66 0.66 1.32 1.32 2 2 C-0.64 3.98 -3.28 5.96 -6 8 C-6.99 6.68 -7.98 5.36 -9 4 C-8.67 3.34 -8.34 2.68 -8 2 C-6.68 2.66 -5.36 3.32 -4 4 C-2.68 2.68 -1.36 1.36 0 0 Z " fill="#625B4F" transform="translate(52,72)"/>
<path d="M0 0 C1.04005702 3.38018531 1.08004482 6.4780279 1 10 C-0.32 10.33 -1.64 10.66 -3 11 C-3.125 8.125 -3.125 8.125 -3 5 C-2.34 4.34 -1.68 3.68 -1 3 C-0.67 2.01 -0.34 1.02 0 0 Z " fill="#4B6D66" transform="translate(66,52)"/>
<path d="M0 0 C1.76462683 3.08809695 2 4.23312136 2 8 C-0.475 7.01 -0.475 7.01 -3 6 C-2.01 4.02 -1.02 2.04 0 0 Z " fill="#F4F2F2" transform="translate(50,25)"/>
<path d="M0 0 C2.35953094 2.35953094 2.49141413 3.77895617 3 7 C2.01 7.495 2.01 7.495 1 8 C0.34 9.32 -0.32 10.64 -1 12 C-0.67 8.04 -0.34 4.08 0 0 Z " fill="#307F7B" transform="translate(48,62)"/>
<path d="M0 0 C1.98 0.495 1.98 0.495 4 1 C3.67 2.32 3.34 3.64 3 5 C1.68 4.67 0.36 4.34 -1 4 C-0.67 2.68 -0.34 1.36 0 0 Z " fill="#FEFBF4" transform="translate(17,53)"/>
<path d="M0 0 C2.5654594 2.5654594 2.54046087 4.47686668 3 8 C0 8 0 8 -1.6875 6.5 C-2.120625 6.005 -2.55375 5.51 -3 5 C-2.67 4.34 -2.34 3.68 -2 3 C-1.34 3.66 -0.68 4.32 0 5 C0 3.35 0 1.7 0 0 Z " fill="#7C958C" transform="translate(46,54)"/>
<path d="M0 0 C0.99 0.33 1.98 0.66 3 1 C3 2.32 3 3.64 3 5 C1.35 4.67 -0.3 4.34 -2 4 C-1.34 2.68 -0.68 1.36 0 0 Z " fill="#EE3A56" transform="translate(24,85)"/>
<path d="M0 0 C0.99 0.33 1.98 0.66 3 1 C3 2.32 3 3.64 3 5 C1.35 4.67 -0.3 4.34 -2 4 C-1.34 2.68 -0.68 1.36 0 0 Z " fill="#FBCF5A" transform="translate(80,74)"/>
<path d="M0 0 C2.31 0.33 4.62 0.66 7 1 C6.67 1.99 6.34 2.98 6 4 C4.35 4.33 2.7 4.66 1 5 C0.67 3.35 0.34 1.7 0 0 Z " fill="#82C6B2" transform="translate(45,45)"/>
<path d="M0 0 C0.99 0.33 1.98 0.66 3 1 C3 2.32 3 3.64 3 5 C1.35 4.67 -0.3 4.34 -2 4 C-1.34 2.68 -0.68 1.36 0 0 Z " fill="#EE3A56" transform="translate(12,27)"/>
<path d="M0 0 C0.99 0.33 1.98 0.66 3 1 C3 2.32 3 3.64 3 5 C1.35 4.67 -0.3 4.34 -2 4 C-1.34 2.68 -0.68 1.36 0 0 Z " fill="#EE3A56" transform="translate(86,22)"/>
<path d="M0 0 C0.66 0.33 1.32 0.66 2 1 C2 1.99 2 2.98 2 4 C0.02 4.33 -1.96 4.66 -4 5 C-2.25 1.125 -2.25 1.125 0 0 Z " fill="#81C2AE" transform="translate(35,45)"/>
<path d="M0 0 C1.65 0.33 3.3 0.66 5 1 C4.67 1.99 4.34 2.98 4 4 C3.01 3.67 2.02 3.34 1 3 C0.67 3.99 0.34 4.98 0 6 C-0.66 5.67 -1.32 5.34 -2 5 C-1.34 3.35 -0.68 1.7 0 0 Z " fill="#786863" transform="translate(43,27)"/>
<path d="M0 0 C0.66 0.33 1.32 0.66 2 1 C2 1.66 2 2.32 2 3 C1.01 3 0.02 3 -1 3 C-0.67 2.01 -0.34 1.02 0 0 Z " fill="#F3B316" transform="translate(76,12)"/>
</svg>
