<?xml version="1.0" encoding="UTF-8"?>
<svg version="1.1" xmlns="http://www.w3.org/2000/svg" width="100" height="100">
<path d="M0 0 C9.40707465 5.68464327 15.68680199 13.83643636 18.546875 24.5390625 C19.81816587 35.18018906 19.08411233 45.14253855 13.546875 54.5390625 C12.556875 55.5290625 12.556875 55.5290625 11.546875 56.5390625 C13.031875 57.0340625 13.031875 57.0340625 14.546875 57.5390625 C14.546875 58.8590625 14.546875 60.1790625 14.546875 61.5390625 C13.226875 61.5390625 11.906875 61.5390625 10.546875 61.5390625 C10.216875 60.8790625 9.886875 60.2190625 9.546875 59.5390625 C9.01320313 59.99796875 8.47953125 60.456875 7.9296875 60.9296875 C-2.56169886 69.56965274 -11.91574525 71.83539098 -25.31445312 70.80957031 C-34.8744138 69.60038807 -42.8797787 64.22976046 -48.828125 56.828125 C-51.453125 53.09114583 -51.453125 53.09114583 -51.453125 50.5390625 C-52.2575 50.5596875 -53.061875 50.5803125 -53.890625 50.6015625 C-56.453125 50.5390625 -56.453125 50.5390625 -57.453125 49.5390625 C-57.578125 46.5390625 -57.578125 46.5390625 -57.453125 43.5390625 C-56.958125 43.0440625 -56.958125 43.0440625 -56.453125 42.5390625 C-56.37687052 40.5797461 -56.30610979 38.62003955 -56.26513672 36.65966797 C-55.96707395 24.96481162 -53.82146128 15.03480794 -45.4765625 6.2890625 C-32.87910695 -4.60603419 -15.10756629 -7.47031593 0 0 Z " fill="#E3E2F6" transform="translate(68.453125,16.4609375)"/>
<path d="M0 0 C0.99 0.33 1.98 0.66 3 1 C3 1.99 3 2.98 3 4 C3.72993164 4.12383057 4.45986328 4.24766113 5.21191406 4.37524414 C9.6929194 5.37935033 13.6249425 7.46155416 17.75 9.4375 C18.62527344 9.84548828 19.50054687 10.25347656 20.40234375 10.67382812 C21.23378906 11.06892578 22.06523438 11.46402344 22.921875 11.87109375 C23.68081055 12.23130615 24.43974609 12.59151855 25.22167969 12.96264648 C27 14 27 14 28 16 C25.64741656 16.50866669 23.29338596 17.0070625 20.9375 17.5 C20.28072266 17.64308594 19.62394531 17.78617188 18.94726562 17.93359375 C14.56860012 18.83952455 10.49581296 19.14031146 6 19 C6.14622803 19.68513672 6.29245605 20.37027344 6.44311523 21.07617188 C7.11135764 24.21672563 7.77446426 27.35834306 8.4375 30.5 C8.66759766 31.57765625 8.89769531 32.6553125 9.13476562 33.765625 C10.34176534 39.50324685 11.38427775 45.16833182 12 51 C17.28 51 22.56 51 28 51 C28 51.33 28 51.66 28 52 C17.77 52 7.54 52 -3 52 C-3 51.67 -3 51.34 -3 51 C0.96 51 4.92 51 9 51 C8.65066406 49.4325 8.30132812 47.865 7.94140625 46.25 C7.48158068 44.16670863 7.02195588 42.08337294 6.5625 40 C6.33240234 38.97003906 6.10230469 37.94007812 5.86523438 36.87890625 C4.6300475 31.2579109 3.59862473 25.724779 3 20 C2.16597656 20.20496094 1.33195312 20.40992187 0.47265625 20.62109375 C-6.03033872 22.17793905 -12.33643284 23.43529092 -19 24 C-14.89446459 18.06978218 -10.29170187 13.13472211 -5.05175781 8.21386719 C-1.3613917 4.7283027 -1.3613917 4.7283027 0 0 Z " fill="#6B503B" transform="translate(46,22)"/>
<path d="M0 0 C7.50450787 3.0301707 14.81812717 6.26606169 22 10 C20 12 20 12 16.9375 12.125 C15.968125 12.08375 14.99875 12.0425 14 12 C12.80877978 11.91731018 12.80877978 11.91731018 11.25 13 C8.6437109 14.15835071 6.82348716 14.22893139 4 14 C3 13 3 13 2.9375 10.4375 C2.958125 9.633125 2.97875 8.82875 3 8 C2.34 8 1.68 8 1 8 C1.33 10.31 1.66 12.62 2 15 C1.34773438 15.04898438 0.69546875 15.09796875 0.0234375 15.1484375 C-4.97397474 15.57594474 -9.24395448 16.33538407 -14 18 C-14.66 17.67 -15.32 17.34 -16 17 C-10.82296052 11.16555868 -5.59719124 5.43521465 0 0 Z " fill="#EFC003" transform="translate(47,26)"/>
<path d="M0 0 C0.99 0 1.98 0 3 0 C4.66920743 7.02014189 6.25505125 14.05288006 7.6875 21.125 C8.06455078 22.98511719 8.06455078 22.98511719 8.44921875 24.8828125 C9 28 9 28 9 31 C14.28 31 19.56 31 25 31 C25 31.33 25 31.66 25 32 C14.77 32 4.54 32 -6 32 C-6 31.67 -6 31.34 -6 31 C-2.04 31 1.92 31 6 31 C5.47599609 28.64875 5.47599609 28.64875 4.94140625 26.25 C4.48158068 24.16670863 4.02195588 22.08337294 3.5625 20 C3.33240234 18.97003906 3.10230469 17.94007812 2.86523438 16.87890625 C1.6300475 11.2579109 0.59862473 5.724779 0 0 Z " fill="#7E645C" transform="translate(49,42)"/>
<path d="M0 0 C0.99 0.33 1.98 0.66 3 1 C3 4 3 4 1.49609375 5.578125 C0.81675781 6.12984375 0.13742188 6.6815625 -0.5625 7.25 C-3.44510836 9.67098069 -6.24720037 12.11551571 -8.9375 14.75 C-9.78634766 15.57757813 -9.78634766 15.57757813 -10.65234375 16.421875 C-12.2328861 18.07266736 -12.2328861 18.07266736 -13 21 C-12.01 21.33 -11.02 21.66 -10 22 C-10 22.33 -10 22.66 -10 23 C-12.97 23.33 -15.94 23.66 -19 24 C-14.89446459 18.06978218 -10.29170187 13.13472211 -5.05175781 8.21386719 C-1.3613917 4.7283027 -1.3613917 4.7283027 0 0 Z " fill="#6A5147" transform="translate(46,22)"/>
<path d="M0 0 C3 0.125 3 0.125 4 1.125 C4.125 4.125 4.125 4.125 4 7.125 C3 8.125 3 8.125 0 8.25 C-3 8.125 -3 8.125 -4 7.125 C-4.125 4.125 -4.125 4.125 -4 1.125 C-3 0.125 -3 0.125 0 0 Z " fill="#F0BC19" transform="translate(83,10.875)"/>
<path d="M0 0 C2.5625 0.1875 2.5625 0.1875 4.5625 2.1875 C4.00694444 6.74305556 4.00694444 6.74305556 2.5625 8.1875 C0.0625 8.3125 0.0625 8.3125 -2.4375 8.1875 C-3.4375 7.1875 -3.4375 7.1875 -3.5625 4.1875 C-3.39891479 0.26145498 -3.39891479 0.26145498 0 0 Z " fill="#FACD5C" transform="translate(14.4375,58.8125)"/>
<path d="M0 0 C0.66 0 1.32 0 2 0 C2.33 1.65 2.66 3.3 3 5 C5.475 5.495 5.475 5.495 8 6 C4.74191457 7.85953078 1.75537475 8.53823806 -1.9375 9.125 C-2.95714844 9.29257812 -3.97679687 9.46015625 -5.02734375 9.6328125 C-7.72592382 9.96614565 -10.28538935 10.06998996 -13 10 C-9.85408067 7.19954377 -7.932936 6.64738411 -3.75 6.8125 C-2.85796875 6.83957031 -1.9659375 6.86664063 -1.046875 6.89453125 C-0.37140625 6.92933594 0.3040625 6.96414062 1 7 C0.67 4.69 0.34 2.38 0 0 Z " fill="#66482B" transform="translate(48,34)"/>
<path d="M0 0 C1.98 0.495 1.98 0.495 4 1 C3.67 2.32 3.34 3.64 3 5 C1.68 4.67 0.36 4.34 -1 4 C-0.67 2.68 -0.34 1.36 0 0 Z " fill="#FCFCFE" transform="translate(22,65)"/>
<path d="M0 0 C1.32 0 2.64 0 4 0 C4 1.32 4 2.64 4 4 C2.68 4 1.36 4 0 4 C0 2.68 0 1.36 0 0 Z " fill="#8888B8" transform="translate(23,85)"/>
<path d="M0 0 C1.32 0 2.64 0 4 0 C4 1.32 4 2.64 4 4 C2.68 4 1.36 4 0 4 C0 2.68 0 1.36 0 0 Z " fill="#8888B8" transform="translate(85,22)"/>
<path d="M0 0 C0.66 0 1.32 0 2 0 C2 0.66 2 1.32 2 2 C1.34 2 0.68 2 0 2 C0 1.34 0 0.68 0 0 Z " fill="#F1BC19" transform="translate(76,12)"/>
</svg>
