<?xml version="1.0" encoding="UTF-8"?>
<!DOCTYPE svg PUBLIC "-//W3C//DTD SVG 1.1//EN" "http://www.w3.org/Graphics/SVG/1.1/DTD/svg11.dtd">
<svg xmlns="http://www.w3.org/2000/svg" version="1.1" width="100px" height="100px" style="shape-rendering:geometricPrecision; text-rendering:geometricPrecision; image-rendering:optimizeQuality; fill-rule:evenodd; clip-rule:evenodd" xmlns:xlink="http://www.w3.org/1999/xlink">
<g><path style="opacity:0.907" fill="#f0bc19" d="M 80.5,10.5 C 87.1584,9.34448 89.1584,11.8445 86.5,18C 79.7496,19.4689 77.7496,16.9689 80.5,10.5 Z"/></g>
<g><path style="opacity:0.766" fill="#f0bc18" d="M 76.5,11.5 C 78.337,11.6395 78.6704,12.3061 77.5,13.5C 76.7025,13.0431 76.3691,12.3764 76.5,11.5 Z"/></g>
<g><path style="opacity:0.982" fill="#fbdfa1" d="M 79.5,73.5 C 78.8333,73.5 78.5,73.8333 78.5,74.5C 68.4123,85.0265 56.079,88.8598 41.5,86C 30.4791,83.0176 22.4791,76.5176 17.5,66.5C 20.9157,61.513 19.5824,58.8463 13.5,58.5C 11.8095,26.0234 27.1429,10.8568 59.5,13C 81.274,20.3598 90.4407,35.5265 87,58.5C 85.541,64.0848 83.041,69.0848 79.5,73.5 Z"/></g>
<g><path style="opacity:0.878" fill="#ed3e53" d="M 85.5,21.5 C 86.8333,21.5 88.1667,21.5 89.5,21.5C 89.5,22.8333 89.5,24.1667 89.5,25.5C 88.1667,25.5 86.8333,25.5 85.5,25.5C 85.5,24.1667 85.5,22.8333 85.5,21.5 Z"/></g>
<g><path style="opacity:0.878" fill="#ed3e53" d="M 11.5,26.5 C 12.8333,26.5 14.1667,26.5 15.5,26.5C 15.5,27.8333 15.5,29.1667 15.5,30.5C 14.1667,30.5 12.8333,30.5 11.5,30.5C 11.5,29.1667 11.5,27.8333 11.5,26.5 Z"/></g>
<g><path style="opacity:1" fill="#83c7c4" d="M 56.5,43.5 C 56.1583,44.3382 55.4916,44.6716 54.5,44.5C 53.5041,44.4142 52.6708,44.7476 52,45.5C 51.1764,42.1177 51.343,38.7844 52.5,35.5C 54.7989,34.3649 56.9656,33.0316 59,31.5C 60.1222,36.0639 59.2889,40.0639 56.5,43.5 Z"/></g>
<g><path style="opacity:1" fill="#f9dda0" d="M 39.5,42.5 C 42.3274,42.5838 44.994,43.2504 47.5,44.5C 49.8333,48.5 52.1667,48.5 54.5,44.5C 55.4916,44.6716 56.1583,44.3382 56.5,43.5C 58.8333,42.1667 61.1667,42.1667 63.5,43.5C 65.424,45.0902 65.7573,46.9235 64.5,49C 62.1667,50.1667 59.8333,51.3333 57.5,52.5C 56.5091,56.4454 56.1758,60.4454 56.5,64.5C 56.9175,65.2216 57.5842,65.7216 58.5,66C 54.4539,70.6817 49.7873,71.5151 44.5,68.5C 44.0472,67.5416 43.3805,66.7083 42.5,66C 43.7522,63.9587 44.4188,61.6254 44.5,59C 44.1667,56.8333 43.8333,54.6667 43.5,52.5C 40.9206,51.2939 38.4206,49.9606 36,48.5C 35.3872,46.5048 35.8872,44.8381 37.5,43.5C 37.8417,42.6618 38.5084,42.3284 39.5,42.5 Z"/></g>
<g><path style="opacity:1" fill="#644e46" d="M 63.5,43.5 C 61.1667,42.1667 58.8333,42.1667 56.5,43.5C 59.2889,40.0639 60.1222,36.0639 59,31.5C 56.9656,33.0316 54.7989,34.3649 52.5,35.5C 51.343,38.7844 51.1764,42.1177 52,45.5C 52.6708,44.7476 53.5041,44.4142 54.5,44.5C 52.1667,48.5 49.8333,48.5 47.5,44.5C 44.994,43.2504 42.3274,42.5838 39.5,42.5C 39.7828,41.7109 40.2828,41.0442 41,40.5C 41.1747,36.789 41.6747,33.1224 42.5,29.5C 45.273,28.0301 48.1063,26.6968 51,25.5C 53.8937,26.6968 56.727,28.0301 59.5,29.5C 59.7832,34.6566 61.1165,39.3233 63.5,43.5 Z"/></g>
<g><path style="opacity:1" fill="#a7d7d7" d="M 45.5,32.5 C 46.791,32.2627 47.791,32.596 48.5,33.5C 47.5218,34.2971 47.8551,34.9638 49.5,35.5C 50.657,38.7844 50.8236,42.1177 50,45.5C 49.3292,44.7476 48.4959,44.4142 47.5,44.5C 46.5943,43.0351 45.261,42.0351 43.5,41.5C 42.343,38.2156 42.1764,34.8823 43,31.5C 43.6708,32.2524 44.5041,32.5858 45.5,32.5 Z"/></g>
<g><path style="opacity:1" fill="#e8f1ef" d="M 48.5,33.5 C 47.791,32.596 46.791,32.2627 45.5,32.5C 45.1961,31.8501 44.8627,31.1835 44.5,30.5C 46.583,29.0413 48.7497,27.7079 51,26.5C 53.2503,27.7079 55.417,29.0413 57.5,30.5C 55.0334,33.5873 52.0334,34.5873 48.5,33.5 Z"/></g>
<g><path style="opacity:1" fill="#fefbf5" d="M 17.5,50.5 C 21.1612,50.3501 22.1612,51.8501 20.5,55C 16.7071,55.4866 15.7071,53.9866 17.5,50.5 Z"/></g>
<g><path style="opacity:1" fill="#725b51" d="M 37.5,43.5 C 35.8872,44.8381 35.3872,46.5048 36,48.5C 38.4206,49.9606 40.9206,51.2939 43.5,52.5C 43.8333,54.6667 44.1667,56.8333 44.5,59C 44.4188,61.6254 43.7522,63.9587 42.5,66C 43.3805,66.7083 44.0472,67.5416 44.5,68.5C 42.5648,67.8505 40.5648,67.5172 38.5,67.5C 43.0332,64.4757 44.5332,60.1424 43,54.5C 42.6174,55.056 42.1174,55.3893 41.5,55.5C 41.719,54.325 41.3857,53.325 40.5,52.5C 36.2957,48.9006 32.2957,49.2339 28.5,53.5C 27.8333,53.5 27.5,53.1667 27.5,52.5C 29.2726,51.1077 31.2726,49.941 33.5,49C 34.2266,47.6012 34.7266,46.1012 35,44.5C 35.6708,43.7476 36.5041,43.4142 37.5,43.5 Z"/></g>
<g><path style="opacity:1" fill="#e7efed" d="M 41.5,55.5 C 40.8333,55.5 40.1667,55.5 39.5,55.5C 35.2707,58.2067 31.604,57.54 28.5,53.5C 32.2957,49.2339 36.2957,48.9006 40.5,52.5C 41.3857,53.325 41.719,54.325 41.5,55.5 Z"/></g>
<g><path style="opacity:1" fill="#84ccc9" d="M 38.5,67.5 C 37.5041,67.4142 36.6708,67.7476 36,68.5C 35.1764,65.1177 35.343,61.7844 36.5,58.5C 38.2131,58.1207 39.2131,57.1207 39.5,55.5C 40.1667,55.5 40.8333,55.5 41.5,55.5C 42.1174,55.3893 42.6174,55.056 43,54.5C 44.5332,60.1424 43.0332,64.4757 38.5,67.5 Z"/></g>
<g><path style="opacity:1" fill="#a6d7d7" d="M 65.5,61.5 C 65.5,62.5 65.5,63.5 65.5,64.5C 65.6567,65.8734 65.49,67.2068 65,68.5C 64.3292,67.7476 63.4959,67.4142 62.5,67.5C 61.1007,66.1103 59.4341,65.1103 57.5,64.5C 57.335,61.1501 57.5017,57.8168 58,54.5C 60.0344,56.0316 62.2011,57.3649 64.5,58.5C 65.3857,59.325 65.719,60.325 65.5,61.5 Z"/></g>
<g><path style="opacity:1" fill="#83c6c3" d="M 71.5,66.5 C 71.1583,67.3382 70.4916,67.6716 69.5,67.5C 68.5041,67.4142 67.6708,67.7476 67,68.5C 66.79,66.9419 66.29,65.6085 65.5,64.5C 65.5,63.5 65.5,62.5 65.5,61.5C 67.7117,58.6128 70.545,56.2794 74,54.5C 75.1222,59.0639 74.2889,63.0639 71.5,66.5 Z"/></g>
<g><path style="opacity:1" fill="#5c4540" d="M 63.5,43.5 C 64.4959,43.4142 65.3292,43.7476 66,44.5C 66.2734,46.1012 66.7734,47.6012 67.5,49C 69.8333,50.1667 72.1667,51.3333 74.5,52.5C 75.8333,56.8333 75.8333,61.1667 74.5,65.5C 73.5832,66.1272 72.5832,66.4606 71.5,66.5C 74.2889,63.0639 75.1222,59.0639 74,54.5C 70.545,56.2794 67.7117,58.6128 65.5,61.5C 65.719,60.325 65.3857,59.325 64.5,58.5C 62.2011,57.3649 60.0344,56.0316 58,54.5C 57.5017,57.8168 57.335,61.1501 57.5,64.5C 57.1667,64.5 56.8333,64.5 56.5,64.5C 56.1758,60.4454 56.5091,56.4454 57.5,52.5C 59.8333,51.3333 62.1667,50.1667 64.5,49C 65.7573,46.9235 65.424,45.0902 63.5,43.5 Z"/></g>
<g><path style="opacity:1" fill="#e6eeec" d="M 65.5,49.5 C 67.9687,50.5686 70.3021,51.9019 72.5,53.5C 68.1667,58.8333 63.8333,58.8333 59.5,53.5C 61.5654,52.1433 63.5654,50.81 65.5,49.5 Z"/></g>
<g><path style="opacity:0.906" fill="#fbcd5a" d="M 13.5,58.5 C 19.5824,58.8463 20.9157,61.513 17.5,66.5C 11.9334,67.2468 10.1,64.9134 12,59.5C 12.3826,58.944 12.8826,58.6107 13.5,58.5 Z"/></g>
<g><path style="opacity:1" fill="#59443f" d="M 27.5,52.5 C 27.5,53.1667 27.8333,53.5 28.5,53.5C 31.604,57.54 35.2707,58.2067 39.5,55.5C 39.2131,57.1207 38.2131,58.1207 36.5,58.5C 35.343,61.7844 35.1764,65.1177 36,68.5C 36.6708,67.7476 37.5041,67.4142 38.5,67.5C 36.1667,71.5 33.8333,71.5 31.5,67.5C 26.663,66.8575 24.663,64.0242 25.5,59C 25.5332,56.3897 26.1999,54.223 27.5,52.5 Z"/></g>
<g><path style="opacity:1" fill="#a6d7d7" d="M 31.5,67.5 C 30.5943,66.0351 29.261,65.0351 27.5,64.5C 26.343,61.2156 26.1764,57.8823 27,54.5C 29.0344,56.0316 31.2011,57.3649 33.5,58.5C 34.657,61.7844 34.8236,65.1177 34,68.5C 33.3292,67.7476 32.4959,67.4142 31.5,67.5 Z"/></g>
<g><path style="opacity:1" fill="#f3c439" d="M 20.5,65.5 C 22.337,65.6395 22.6704,66.3061 21.5,67.5C 20.7025,67.0431 20.3691,66.3764 20.5,65.5 Z"/></g>
<g><path style="opacity:1" fill="#5b433b" d="M 65.5,64.5 C 66.29,65.6085 66.79,66.9419 67,68.5C 67.6708,67.7476 68.5041,67.4142 69.5,67.5C 67.1667,71.5 64.8333,71.5 62.5,67.5C 63.4959,67.4142 64.3292,67.7476 65,68.5C 65.49,67.2068 65.6567,65.8734 65.5,64.5 Z"/></g>
<g><path style="opacity:1" fill="#816652" d="M 56.5,64.5 C 56.8333,64.5 57.1667,64.5 57.5,64.5C 59.4341,65.1103 61.1007,66.1103 62.5,67.5C 58.3489,68.5686 54.3489,70.2352 50.5,72.5C 48.0894,71.6389 46.0894,70.3056 44.5,68.5C 49.7873,71.5151 54.4539,70.6817 58.5,66C 57.5842,65.7216 56.9175,65.2216 56.5,64.5 Z"/></g>
<g><path style="opacity:0.835" fill="#fbcf5a" d="M 78.5,74.5 C 78.5,73.8333 78.8333,73.5 79.5,73.5C 80.8333,73.5 82.1667,73.5 83.5,73.5C 83.5,74.8333 83.5,76.1667 83.5,77.5C 82.1667,77.5 80.8333,77.5 79.5,77.5C 79.7373,76.209 79.404,75.209 78.5,74.5 Z"/></g>
<g><path style="opacity:0.878" fill="#ed3e53" d="M 23.5,84.5 C 24.8333,84.5 26.1667,84.5 27.5,84.5C 27.5,85.8333 27.5,87.1667 27.5,88.5C 26.1667,88.5 24.8333,88.5 23.5,88.5C 23.5,87.1667 23.5,85.8333 23.5,84.5 Z"/></g>
</svg>
