<?xml version="1.0" encoding="UTF-8"?>
<svg version="1.1" xmlns="http://www.w3.org/2000/svg" width="100" height="100">
<path d="M0 0 C9.40707465 5.68464327 15.68680199 13.83643636 18.546875 24.5390625 C19.81816587 35.18018906 19.08411233 45.14253855 13.546875 54.5390625 C12.556875 55.5290625 12.556875 55.5290625 11.546875 56.5390625 C13.031875 57.0340625 13.031875 57.0340625 14.546875 57.5390625 C14.546875 58.8590625 14.546875 60.1790625 14.546875 61.5390625 C13.226875 61.5390625 11.906875 61.5390625 10.546875 61.5390625 C10.216875 60.8790625 9.886875 60.2190625 9.546875 59.5390625 C9.01320313 59.99796875 8.47953125 60.456875 7.9296875 60.9296875 C-2.56169886 69.56965274 -11.91574525 71.83539098 -25.31445312 70.80957031 C-34.8744138 69.60038807 -42.8797787 64.22976046 -48.828125 56.828125 C-51.453125 53.09114583 -51.453125 53.09114583 -51.453125 50.5390625 C-52.2575 50.5596875 -53.061875 50.5803125 -53.890625 50.6015625 C-56.453125 50.5390625 -56.453125 50.5390625 -57.453125 49.5390625 C-57.578125 46.5390625 -57.578125 46.5390625 -57.453125 43.5390625 C-56.958125 43.0440625 -56.958125 43.0440625 -56.453125 42.5390625 C-56.37687052 40.5797461 -56.30610979 38.62003955 -56.26513672 36.65966797 C-55.96707395 24.96481162 -53.82146128 15.03480794 -45.4765625 6.2890625 C-32.87910695 -4.60603419 -15.10756629 -7.47031593 0 0 Z " fill="#FBDFA1" transform="translate(68.453125,16.4609375)"/>
<path d="M0 0 C2.43364789 1.05697387 4.34716218 2.37461883 6.46899414 3.97045898 C7.29979492 4.58985352 8.1305957 5.20924805 8.98657227 5.84741211 C9.84573242 6.49774414 10.70489258 7.14807617 11.59008789 7.81811523 C13.29939581 9.09850048 15.00901798 10.37846633 16.71899414 11.65795898 C17.4738208 12.22764404 18.22864746 12.7973291 19.00634766 13.38427734 C20.64556876 14.59780387 22.33059435 15.74928621 24.02758789 16.88061523 C24.43602713 19.59265175 24.16095656 22.12432944 24.02758789 24.88061523 C23.03758789 24.88061523 22.04758789 24.88061523 21.02758789 24.88061523 C21.02758789 33.13061523 21.02758789 41.38061523 21.02758789 49.88061523 C6.50758789 49.88061523 -8.01241211 49.88061523 -22.97241211 49.88061523 C-22.97241211 41.96061523 -22.97241211 34.04061523 -22.97241211 25.88061523 C-23.63241211 25.88061523 -24.29241211 25.88061523 -24.97241211 25.88061523 C-25.57458228 22.7151531 -25.70846208 20.03315468 -24.97241211 16.88061523 C-22.32599854 13.78711132 -19.11653044 11.71745723 -15.72241211 9.50561523 C-14.8497168 8.90362305 -13.97702148 8.30163086 -13.07788086 7.68139648 C-11.45157751 6.56160593 -9.81666735 5.45413737 -8.1706543 4.36352539 C-5.93626565 2.91881326 -5.93626565 2.91881326 -3.93823242 1.12817383 C-1.97241211 -0.11938477 -1.97241211 -0.11938477 0 0 Z " fill="#4F372D" transform="translate(50.972412109375,23.119384765625)"/>
<path d="M0 0 C8.16962281 2.86509818 17.17029108 7.61583249 22 15 C24.08179886 23.13510926 23.06435268 31.75969487 22 40 C19.03 40 16.06 40 13 40 C12.95101562 39.15695313 12.90203125 38.31390625 12.8515625 37.4453125 C12.77679688 36.34960938 12.70203125 35.25390625 12.625 34.125 C12.55539063 33.03445312 12.48578125 31.94390625 12.4140625 30.8203125 C12.26746509 27.86953526 12.26746509 27.86953526 10 26 C8.68252676 25.30251417 7.35085807 24.63040043 6 24 C6.639375 23.525625 7.27875 23.05125 7.9375 22.5625 C10.84850272 18.94579965 10.80649782 15.52795106 11 11 C4.39027957 10.43305248 4.39027957 10.43305248 -1.6875 12.5625 C-3.57978934 16.07675163 -3.03228311 18.21496192 -2 22 C-1.01 22.99 -0.02 23.98 1 25 C-1.97 25 -4.94 25 -8 25 C-8.33 22.69 -8.66 20.38 -9 18 C-9.99 18 -10.98 18 -12 18 C-12 21.63 -12 25.26 -12 29 C-10.68 29.33 -9.36 29.66 -8 30 C-8 30.99 -8 31.98 -8 33 C-6.68 33 -5.36 33 -4 33 C-4 35.31 -4 37.62 -4 40 C-8.95 40 -13.9 40 -19 40 C-21.07962168 17.45426024 -21.07962168 17.45426024 -17.70654297 11.8515625 C-14.058338 8.1676862 -9.64450335 6.17663193 -5 4 C-3.29493587 2.71613401 -1.61180464 1.39915737 0 0 Z " fill="#F5F3E5" transform="translate(49,32)"/>
<path d="M0 0 C0.4726477 8.19256018 0.4726477 8.19256018 -1.5 11.5625 C-1.995 12.036875 -2.49 12.51125 -3 13 C-1.35 14.32 0.3 15.64 2 17 C1.67 18.65 1.34 20.3 1 22 C-0.32 22 -1.64 22 -3 22 C-3 23.98 -3 25.96 -3 28 C-6.3 28 -9.6 28 -13 28 C-13 25.03 -13 22.06 -13 19 C-13.66 19 -14.32 19 -15 19 C-15 19.66 -15 20.32 -15 21 C-15.99 21 -16.98 21 -18 21 C-18 19.02 -18 17.04 -18 15 C-16.02 14.67 -14.04 14.34 -12 14 C-12.515625 13.319375 -13.03125 12.63875 -13.5625 11.9375 C-15.43625505 8.10852228 -15.12962701 6.06665724 -14 2 C-10.32749002 -2.3787619 -5.03271735 -1.67757245 0 0 Z " fill="#705F49" transform="translate(60,43)"/>
<path d="M0 0 C3.40755272 1.92880342 6.74147635 3.8276509 10 6 C10.34057617 8.33837891 10.34057617 8.33837891 10.29296875 11.2265625 C10.28330078 12.2578125 10.27363281 13.2890625 10.26367188 14.3515625 C10.23853516 15.43179688 10.21339844 16.51203125 10.1875 17.625 C10.17396484 18.71296875 10.16042969 19.8009375 10.14648438 20.921875 C10.11104754 23.61507409 10.06164331 26.30729374 10 29 C7.36 29 4.72 29 2 29 C1.95101562 28.22914062 1.90203125 27.45828125 1.8515625 26.6640625 C1.77679688 25.66117188 1.70203125 24.65828125 1.625 23.625 C1.55539063 22.62726563 1.48578125 21.62953125 1.4140625 20.6015625 C1.23636036 17.84491121 1.23636036 17.84491121 -1 16 C-2.31747324 15.30251417 -3.64914193 14.63040043 -5 14 C-4.360625 13.54625 -3.72125 13.0925 -3.0625 12.625 C-0.01774843 8.74986164 -0.18350135 4.8077353 0 0 Z " fill="#F6F4E6" transform="translate(60,42)"/>
<path d="M0 0 C5.7139106 3.58253125 11.18125839 7.50230742 16.5625 11.5625 C17.19430176 12.02116455 17.82610352 12.4798291 18.47705078 12.95239258 C22.90850811 16.35422716 22.90850811 16.35422716 23.40234375 19.83984375 C23.26957031 20.55269531 23.13679688 21.26554687 23 22 C15.31385736 17.11423491 8.16618528 11.60446639 1 6 C-5.40719736 10.12584679 -11.47400124 14.58141092 -17.49609375 19.2421875 C-20 21 -20 21 -22 21 C-21.66700088 18.01227564 -21.37456901 16.39697502 -19.28173828 14.17895508 C-18.55196777 13.63134521 -17.82219727 13.08373535 -17.0703125 12.51953125 C-16.27496094 11.91302734 -15.47960938 11.30652344 -14.66015625 10.68164062 C-13.82355469 10.06482422 -12.98695312 9.44800781 -12.125 8.8125 C-10.88169922 7.86987305 -10.88169922 7.86987305 -9.61328125 6.90820312 C-6.45473915 4.52271293 -3.29396053 2.19597368 0 0 Z " fill="#E14E63" transform="translate(50,24)"/>
<path d="M0 0 C2.43364789 1.05697387 4.34716218 2.37461883 6.46899414 3.97045898 C7.29979492 4.58985352 8.1305957 5.20924805 8.98657227 5.84741211 C9.84573242 6.49774414 10.70489258 7.14807617 11.59008789 7.81811523 C13.29939581 9.09850048 15.00901798 10.37846633 16.71899414 11.65795898 C17.4738208 12.22764404 18.22864746 12.7973291 19.00634766 13.38427734 C20.64556876 14.59780387 22.33059435 15.74928621 24.02758789 16.88061523 C24.43602713 19.59265175 24.16095656 22.12432944 24.02758789 24.88061523 C23.03758789 24.88061523 22.04758789 24.88061523 21.02758789 24.88061523 C21.02758789 33.13061523 21.02758789 41.38061523 21.02758789 49.88061523 C20.69758789 49.88061523 20.36758789 49.88061523 20.02758789 49.88061523 C20.09679443 49.16631348 20.16600098 48.45201172 20.23730469 47.71606445 C21.67803583 33.85679093 21.67803583 33.85679093 17.11547852 21.27514648 C12.05723721 16.52760797 6.20155156 12.99768631 0.02758789 9.88061523 C-3.06139088 11.39090928 -5.87216952 13.07750995 -8.72241211 15.00561523 C-9.52163086 15.54444336 -10.32084961 16.08327148 -11.14428711 16.63842773 C-11.74756836 17.04834961 -12.35084961 17.45827148 -12.97241211 17.88061523 C-12.69096224 14.67641668 -11.96953004 13.87815131 -9.46850586 11.73999023 C-8.45916992 11.04389648 -7.44983398 10.34780273 -6.40991211 9.63061523 C-5.39799805 8.92420898 -4.38608398 8.21780273 -3.34350586 7.48999023 C-2.56104492 6.95889648 -1.77858398 6.42780273 -0.97241211 5.88061523 C3.97768217 9.09739574 8.6940961 12.57157442 13.40258789 16.13061523 C14.13864258 16.68491211 14.87469727 17.23920898 15.63305664 17.81030273 C17.43234478 19.16561069 19.2304875 20.52240854 21.02758789 21.88061523 C20.71793566 18.70007878 20.37466898 17.22682699 18.078125 14.93603516 C17.24547119 14.33380127 16.41281738 13.73156738 15.55493164 13.11108398 C14.65581055 12.45043945 13.75668945 11.78979492 12.83032227 11.10913086 C11.41203125 10.09882812 11.41203125 10.09882812 9.96508789 9.06811523 C9.01569336 8.37524414 8.06629883 7.68237305 7.08813477 6.96850586 C4.74330975 5.25996502 2.38991854 3.56482548 0.02758789 1.88061523 C-5.40468208 5.46281455 -10.8084829 9.06504291 -16.03491211 12.94311523 C-16.6143457 13.35110352 -17.1937793 13.7590918 -17.79077148 14.17944336 C-19.66995508 15.52767374 -19.66995508 15.52767374 -21.97241211 17.88061523 C-22.47086352 20.59091186 -22.47086352 20.59091186 -21.97241211 22.88061523 C-22.63241211 22.88061523 -23.29241211 22.88061523 -23.97241211 22.88061523 C-24.30241211 20.90061523 -24.63241211 18.92061523 -24.97241211 16.88061523 C-24.41779297 16.47222412 -23.86317383 16.06383301 -23.29174805 15.64306641 C-20.7685029 13.78493011 -18.24545559 11.92652535 -15.72241211 10.06811523 C-14.8497168 9.42551758 -13.97702148 8.78291992 -13.07788086 8.12084961 C-11.81137695 7.18789063 -11.81137695 7.18789063 -10.51928711 6.23608398 C-9.74423828 5.665271 -8.96918945 5.09445801 -8.1706543 4.50634766 C-5.95446815 2.91257992 -5.95446815 2.91257992 -3.93823242 1.10839844 C-1.97241211 -0.11938477 -1.97241211 -0.11938477 0 0 Z " fill="#603A37" transform="translate(50.972412109375,23.119384765625)"/>
<path d="M0 0 C0.99 0 1.98 0 3 0 C3 0.66 3 1.32 3 2 C3.804375 1.979375 4.60875 1.95875 5.4375 1.9375 C8 2 8 2 9 3 C9.04063832 4.66617115 9.042721 6.33388095 9 8 C8.01 8 7.02 8 6 8 C6 9.98 6 11.96 6 14 C2.7 14 -0.6 14 -4 14 C-4 11.03 -4 8.06 -4 5 C-5.32 5.33 -6.64 5.66 -8 6 C-8 4.68 -8 3.36 -8 2 C-5.36 2 -2.72 2 0 2 C0 1.34 0 0.68 0 0 Z " fill="#8AAB46" transform="translate(51,57)"/>
<path d="M0 0 C8.16962281 2.86509818 17.17029108 7.61583249 22 15 C24.08179886 23.13510926 23.06435268 31.75969487 22 40 C19.03 40 16.06 40 13 40 C13 39.67 13 39.34 13 39 C15.64 39 18.28 39 21 39 C21 31.41 21 23.82 21 16 C18.525 15.01 18.525 15.01 16 14 C14.30249023 12.83911133 14.30249023 12.83911133 12.80859375 11.58203125 C12.25623047 11.13279297 11.70386719 10.68355469 11.13476562 10.22070312 C9.99517183 9.27519435 8.8597925 8.32458475 7.72851562 7.36914062 C4.77269257 4.74127995 4.77269257 4.74127995 1.06567383 4.20361328 C-1.28177426 5.10863345 -3.06720443 6.25291228 -5.109375 7.72265625 C-5.86347656 8.26083984 -6.61757813 8.79902344 -7.39453125 9.35351562 C-8.17183594 9.91748047 -8.94914062 10.48144531 -9.75 11.0625 C-10.54277344 11.63033203 -11.33554687 12.19816406 -12.15234375 12.78320312 C-14.10555025 14.18339333 -16.05451502 15.58911094 -18 17 C-18.33 16.01 -18.66 15.02 -19 14 C-18.04738281 13.32453125 -17.09476563 12.6490625 -16.11328125 11.953125 C-14.8462995 11.0521602 -13.57937548 10.15111423 -12.3125 9.25 C-11.68666016 8.8065625 -11.06082031 8.363125 -10.41601562 7.90625 C-6.85526857 5.37084895 -3.38477246 2.76994764 0 0 Z " fill="#BBB3A8" transform="translate(49,32)"/>
<path d="M0 0 C0.99 0.33 1.98 0.66 3 1 C2.67 2.65 2.34 4.3 2 6 C-1.01490557 7.00496852 -3.04181692 7.10335303 -6.1875 7.0625 C-7.53908203 7.04896484 -7.53908203 7.04896484 -8.91796875 7.03515625 C-9.60503906 7.02355469 -10.29210938 7.01195312 -11 7 C-10.6875 4.625 -10.6875 4.625 -10 2 C-6.31884463 -0.45410358 -4.34706402 -0.23287843 0 0 Z " fill="#543731" transform="translate(57,42)"/>
<path d="M0 0 C0 0.99 0 1.98 0 3 C-4.34285714 7 -4.34285714 7 -7 7 C-7 15.58 -7 24.16 -7 33 C-7.99 33.495 -7.99 33.495 -9 34 C-9 26.08 -9 18.16 -9 10 C-9.66 10 -10.32 10 -11 10 C-11 7.36 -11 4.72 -11 2 C-10.67 2 -10.34 2 -10 2 C-10 3.65 -10 5.3 -10 7 C-6.7 4.69 -3.4 2.38 0 0 Z " fill="#6E5246" transform="translate(37,39)"/>
<path d="M0 0 C4.875 1.75 4.875 1.75 6 4 C5.17886719 3.87753906 4.35773437 3.75507812 3.51171875 3.62890625 C-1.55250678 4.164058 -4.31466839 6.79283212 -8.1875 9.9375 C-9.59503919 11.05408821 -11.00509493 12.16751342 -12.41796875 13.27734375 C-13.03438232 13.77484131 -13.6507959 14.27233887 -14.28588867 14.78491211 C-16 16 -16 16 -19 17 C-19 16.01 -19 15.02 -19 14 C-16.80487579 12.22073153 -14.64926586 10.63357235 -12.3125 9.0625 C-11.05768434 8.20054115 -9.80376278 7.33727911 -8.55078125 6.47265625 C-7.94830566 6.05902832 -7.34583008 5.64540039 -6.72509766 5.21923828 C-4.40222493 3.57751363 -2.19448087 1.80845364 0 0 Z " fill="#CBC8BA" transform="translate(49,32)"/>
<path d="M0 0 C3 0.125 3 0.125 4 1.125 C4.125 4.125 4.125 4.125 4 7.125 C3 8.125 3 8.125 0 8.25 C-3 8.125 -3 8.125 -4 7.125 C-4.125 4.125 -4.125 4.125 -4 1.125 C-3 0.125 -3 0.125 0 0 Z " fill="#F0BC19" transform="translate(83,10.875)"/>
<path d="M0 0 C-0.33 1.98 -0.66 3.96 -1 6 C-7.46895075 7.34261242 -7.46895075 7.34261242 -9.9375 5.75 C-11 4 -11 4 -11 1 C-9.54182203 0.83197949 -8.0834516 0.66562857 -6.625 0.5 C-5.81289063 0.4071875 -5.00078125 0.314375 -4.1640625 0.21875 C-2 0 -2 0 0 0 Z " fill="#F5BB7F" transform="translate(58,48)"/>
<path d="M0 0 C2.5625 0.1875 2.5625 0.1875 4.5625 2.1875 C4.00694444 6.74305556 4.00694444 6.74305556 2.5625 8.1875 C0.0625 8.3125 0.0625 8.3125 -2.4375 8.1875 C-3.4375 7.1875 -3.4375 7.1875 -3.5625 4.1875 C-3.39891479 0.26145498 -3.39891479 0.26145498 0 0 Z " fill="#FBCD5A" transform="translate(14.4375,58.8125)"/>
<path d="M0 0 C0.66 0.33 1.32 0.66 2 1 C2.4140625 3.28515625 2.4140625 3.28515625 2.625 6.0625 C2.69976562 6.98160156 2.77453125 7.90070312 2.8515625 8.84765625 C2.92503906 9.91306641 2.92503906 9.91306641 3 11 C1.68 10.67 0.36 10.34 -1 10 C-1.02689216 8.52093108 -1.04634621 7.04172517 -1.0625 5.5625 C-1.07410156 4.73878906 -1.08570313 3.91507813 -1.09765625 3.06640625 C-1 1 -1 1 0 0 Z " fill="#F9BE81" transform="translate(38,50)"/>
<path d="M0 0 C1.98 0.495 1.98 0.495 4 1 C3.67 2.32 3.34 3.64 3 5 C1.68 4.67 0.36 4.34 -1 4 C-0.67 2.68 -0.34 1.36 0 0 Z " fill="#FEFBF4" transform="translate(29,22)"/>
<path d="M0 0 C0.99 0 1.98 0 3 0 C3 1.98 3 3.96 3 6 C2.01 6 1.02 6 0 6 C0 4.02 0 2.04 0 0 Z " fill="#EEB57C" transform="translate(58,66)"/>
<path d="M0 0 C4.875 1.75 4.875 1.75 6 4 C3.36 4 0.72 4 -2 4 C-1.34 2.68 -0.68 1.36 0 0 Z " fill="#C5C2B4" transform="translate(49,32)"/>
<path d="M0 0 C1.32 0 2.64 0 4 0 C4 1.32 4 2.64 4 4 C2.68 4 1.36 4 0 4 C0 2.68 0 1.36 0 0 Z " fill="#ED3E53" transform="translate(23,85)"/>
<path d="M0 0 C1.32 0 2.64 0 4 0 C4 1.32 4 2.64 4 4 C2.68 4 1.36 4 0 4 C0 2.68 0 1.36 0 0 Z " fill="#ED3E53" transform="translate(11,27)"/>
<path d="M0 0 C1.32 0 2.64 0 4 0 C4 1.32 4 2.64 4 4 C2.68 4 1.36 4 0 4 C0 2.68 0 1.36 0 0 Z " fill="#ED3E53" transform="translate(85,22)"/>
<path d="M0 0 C0.66 0 1.32 0 2 0 C2 0.66 2 1.32 2 2 C1.34 2 0.68 2 0 2 C0 1.34 0 0.68 0 0 Z " fill="#F1BC19" transform="translate(76,12)"/>
</svg>
