<?xml version="1.0" encoding="UTF-8"?>
<svg version="1.1" xmlns="http://www.w3.org/2000/svg" width="100" height="100">
<path d="M0 0 C9.40707465 5.68464327 15.68680199 13.83643636 18.546875 24.5390625 C19.81816587 35.18018906 19.08411233 45.14253855 13.546875 54.5390625 C12.556875 55.5290625 12.556875 55.5290625 11.546875 56.5390625 C13.031875 57.0340625 13.031875 57.0340625 14.546875 57.5390625 C14.546875 58.8590625 14.546875 60.1790625 14.546875 61.5390625 C13.226875 61.5390625 11.906875 61.5390625 10.546875 61.5390625 C10.216875 60.8790625 9.886875 60.2190625 9.546875 59.5390625 C9.01320313 59.99796875 8.47953125 60.456875 7.9296875 60.9296875 C-2.56169886 69.56965274 -11.91574525 71.83539098 -25.31445312 70.80957031 C-34.8744138 69.60038807 -42.8797787 64.22976046 -48.828125 56.828125 C-51.453125 53.09114583 -51.453125 53.09114583 -51.453125 50.5390625 C-52.2575 50.5596875 -53.061875 50.5803125 -53.890625 50.6015625 C-56.453125 50.5390625 -56.453125 50.5390625 -57.453125 49.5390625 C-57.578125 46.5390625 -57.578125 46.5390625 -57.453125 43.5390625 C-56.958125 43.0440625 -56.958125 43.0440625 -56.453125 42.5390625 C-56.37687052 40.5797461 -56.30610979 38.62003955 -56.26513672 36.65966797 C-55.96707395 24.96481162 -53.82146128 15.03480794 -45.4765625 6.2890625 C-32.87910695 -4.60603419 -15.10756629 -7.47031593 0 0 Z " fill="#E1E7B2" transform="translate(68.453125,16.4609375)"/>
<path d="M0 0 C1.98 0.495 1.98 0.495 4 1 C4 1.66 4 2.32 4 3 C3.01 3.495 3.01 3.495 2 4 C15.86 4.33 29.72 4.66 44 5 C43.505 3.02 43.505 3.02 43 1 C44.32 0.67 45.64 0.34 47 0 C47.495 1.98 47.495 1.98 48 4 C46.02 4.99 46.02 4.99 44 6 C44.495 7.175625 44.99 8.35125 45.5 9.5625 C48.0405277 16.40145608 47.01882922 20.93409774 45 28 C30.81 28 16.62 28 2 28 C-0.32188838 19.87339068 -0.55081868 14.81188221 2 7 C1.484375 6.5875 0.96875 6.175 0.4375 5.75 C-0.036875 5.1725 -0.51125 4.595 -1 4 C-0.6875 1.8125 -0.6875 1.8125 0 0 Z " fill="#77645A" transform="translate(27,47)"/>
<path d="M0 0 C0.33 0 0.66 0 1 0 C1 5.28 1 10.56 1 16 C3.31 16 5.62 16 8 16 C8.33 15.34 8.66 14.68 9 14 C9 14.66 9 15.32 9 16 C15.435 15.505 15.435 15.505 22 15 C22 16.98 22 18.96 22 21 C7.81 21 -6.38 21 -21 21 C-21 19.02 -21 17.04 -21 15 C-16.71 15.33 -12.42 15.66 -8 16 C-7.67 15.34 -7.34 14.68 -7 14 C-7 14.66 -7 15.32 -7 16 C-4.69 16 -2.38 16 0 16 C0 10.72 0 5.44 0 0 Z " fill="#855426" transform="translate(50,54)"/>
<path d="M0 0 C3.3 0 6.6 0 10 0 C10 7.26 10 14.52 10 22 C6.7 22 3.4 22 0 22 C0 14.74 0 7.48 0 0 Z " fill="#79BBC0" transform="translate(51,28)"/>
<path d="M0 0 C3.3 0 6.6 0 10 0 C10 7.26 10 14.52 10 22 C6.7 22 3.4 22 0 22 C0 14.74 0 7.48 0 0 Z " fill="#7ABCC1" transform="translate(40,28)"/>
<path d="M0 0 C8.25 0 16.5 0 25 0 C25.66202926 3.97217558 26.12297595 7.06170297 26.09765625 10.9609375 C26.09515869 11.75806152 26.09266113 12.55518555 26.09008789 13.37646484 C26.08098389 14.36598145 26.07187988 15.35549805 26.0625 16.375 C26.041875 19.55125 26.02125 22.7275 26 26 C17.09 26 8.18 26 -1 26 C-1 17.14594447 -0.70207292 8.77591154 0 0 Z M2 2 C2 9.26 2 16.52 2 24 C5.3 24 8.6 24 12 24 C12 16.74 12 9.48 12 2 C8.7 2 5.4 2 2 2 Z M13 2 C13 9.26 13 16.52 13 24 C16.3 24 19.6 24 23 24 C23 16.74 23 9.48 23 2 C19.7 2 16.4 2 13 2 Z " fill="#FAF9F9" transform="translate(38,26)"/>
<path d="M0 0 C3.63 0 7.26 0 11 0 C11 5.61 11 11.22 11 17 C1.8203125 17.29296875 1.8203125 17.29296875 -1 17 C-3.3073257 13.53901145 -3.03861971 12.06874411 -2.42578125 8.07421875 C-1.85426645 5.29005034 -0.99698476 2.65862602 0 0 Z " fill="#AEA888" transform="translate(31,53)"/>
<path d="M0 0 C1.98 0 3.96 0 6 0 C7.18681726 3.56045177 7.09689832 6.43808337 7.0625 10.1875 C7.05347656 11.45980469 7.04445313 12.73210937 7.03515625 14.04296875 C7.02355469 15.01878906 7.01195312 15.99460937 7 17 C4.69 17 2.38 17 0 17 C0 11.39 0 5.78 0 0 Z " fill="#FEFDFD" transform="translate(51,53)"/>
<path d="M0 0 C1.98 0 3.96 0 6 0 C6 5.61 6 11.22 6 17 C3.69 17 1.38 17 -1 17 C-1.02699725 14.72923158 -1.04639453 12.45837179 -1.0625 10.1875 C-1.07990234 8.29064453 -1.07990234 8.29064453 -1.09765625 6.35546875 C-1 3 -1 3 0 0 Z " fill="#FEFDFD" transform="translate(44,53)"/>
<path d="M0 0 C1.65 0 3.3 0 5 0 C6.83492674 5.39009729 7.52618714 10.29759979 7 16 C6.67 16.33 6.34 16.66 6 17 C4.02 17 2.04 17 0 17 C0 11.39 0 5.78 0 0 Z " fill="#FDFDFC" transform="translate(59,53)"/>
<path d="M0 0 C1.32 0 2.64 0 4 0 C6.08157354 5.29213611 7.66141053 9.32351403 6 15 C5.67 15.66 5.34 16.32 5 17 C3.35 17 1.7 17 0 17 C0 11.39 0 5.78 0 0 Z " fill="#DEE4B0" transform="translate(66,53)"/>
<path d="M0 0 C1.32 0 2.64 0 4 0 C3.87431641 1.46373047 3.87431641 1.46373047 3.74609375 2.95703125 C3.64425781 4.22933594 3.54242188 5.50164063 3.4375 6.8125 C3.33308594 8.07707031 3.22867188 9.34164062 3.12109375 10.64453125 C2.80402822 13.99581184 2.80402822 13.99581184 4 17 C1.625 17.1875 1.625 17.1875 -1 17 C-3.3073257 13.53901145 -3.03861971 12.06874411 -2.42578125 8.07421875 C-1.85426645 5.29005034 -0.99698476 2.65862602 0 0 Z " fill="#E2E8B3" transform="translate(31,53)"/>
<path d="M0 0 C1.65 0 3.3 0 5 0 C5 5.61 5 11.22 5 17 C3.68 17 2.36 17 1 17 C0.67 11.39 0.34 5.78 0 0 Z " fill="#FEFEFD" transform="translate(37,53)"/>
<path d="M0 0 C3 0.125 3 0.125 4 1.125 C4.125 4.125 4.125 4.125 4 7.125 C3 8.125 3 8.125 0 8.25 C-3 8.125 -3 8.125 -4 7.125 C-4.125 4.125 -4.125 4.125 -4 1.125 C-3 0.125 -3 0.125 0 0 Z " fill="#F0BC19" transform="translate(83,10.875)"/>
<path d="M0 0 C2.5625 0.1875 2.5625 0.1875 4.5625 2.1875 C4.00694444 6.74305556 4.00694444 6.74305556 2.5625 8.1875 C0.0625 8.3125 0.0625 8.3125 -2.4375 8.1875 C-3.4375 7.1875 -3.4375 7.1875 -3.5625 4.1875 C-3.39891479 0.26145498 -3.39891479 0.26145498 0 0 Z " fill="#FACD5B" transform="translate(14.4375,58.8125)"/>
<path d="M0 0 C0.66 0 1.32 0 2 0 C3.20568053 4.67201205 3.09382426 9.21496292 3 14 C2.01 14.33 1.02 14.66 0 15 C0 10.05 0 5.1 0 0 Z " fill="#C6C59F" transform="translate(63,55)"/>
<path d="M0 0 C2.0625 0.4375 2.0625 0.4375 4 1 C3.67 2.32 3.34 3.64 3 5 C2.01 5 1.02 5 0 5 C-0.5625 3.0625 -0.5625 3.0625 -1 1 C-0.67 0.67 -0.34 0.34 0 0 Z " fill="#94896D" transform="translate(71,47)"/>
<path d="M0 0 C1.98 0.495 1.98 0.495 4 1 C3.67 2.32 3.34 3.64 3 5 C1.68 4.67 0.36 4.34 -1 4 C-0.67 2.68 -0.34 1.36 0 0 Z " fill="#FCFCF7" transform="translate(18,41)"/>
<path d="M0 0 C1.65 0 3.3 0 5 0 C5 1.32 5 2.64 5 4 C3.68 4 2.36 4 1 4 C0.67 2.68 0.34 1.36 0 0 Z " fill="#FBCF5B" transform="translate(78,74)"/>
<path d="M0 0 C1.32 0 2.64 0 4 0 C4 1.32 4 2.64 4 4 C2.68 4 1.36 4 0 4 C0 2.68 0 1.36 0 0 Z " fill="#9F8065" transform="translate(23,85)"/>
<path d="M0 0 C1.32 0 2.64 0 4 0 C4 1.32 4 2.64 4 4 C2.68 4 1.36 4 0 4 C0 2.68 0 1.36 0 0 Z " fill="#9F8065" transform="translate(85,22)"/>
<path d="M0 0 C0.66 0 1.32 0 2 0 C2 0.66 2 1.32 2 2 C1.34 2 0.68 2 0 2 C0 1.34 0 0.68 0 0 Z " fill="#F1BC19" transform="translate(76,12)"/>
</svg>
