<?xml version="1.0" encoding="UTF-8"?>
<!DOCTYPE svg PUBLIC "-//W3C//DTD SVG 1.1//EN" "http://www.w3.org/Graphics/SVG/1.1/DTD/svg11.dtd">
<svg xmlns="http://www.w3.org/2000/svg" version="1.1" width="100px" height="100px" style="shape-rendering:geometricPrecision; text-rendering:geometricPrecision; image-rendering:optimizeQuality; fill-rule:evenodd; clip-rule:evenodd" xmlns:xlink="http://www.w3.org/1999/xlink">
<g><path style="opacity:0.907" fill="#f0bc19" d="M 79.5,10.5 C 86.1584,9.34448 88.1584,11.8445 85.5,18C 78.7496,19.4689 76.7496,16.9689 79.5,10.5 Z"/></g>
<g><path style="opacity:0.766" fill="#f0bc18" d="M 75.5,11.5 C 77.337,11.6395 77.6704,12.3061 76.5,13.5C 75.7025,13.0431 75.3691,12.3764 75.5,11.5 Z"/></g>
<g><path style="opacity:0.982" fill="#fbdfa1" d="M 78.5,73.5 C 77.8333,73.5 77.5,73.8333 77.5,74.5C 67.4123,85.0265 55.079,88.8598 40.5,86C 29.4791,83.0176 21.4791,76.5176 16.5,66.5C 19.9157,61.513 18.5824,58.8463 12.5,58.5C 10.8095,26.0234 26.1429,10.8568 58.5,13C 80.274,20.3598 89.4407,35.5265 86,58.5C 84.541,64.0848 82.041,69.0848 78.5,73.5 Z"/></g>
<g><path style="opacity:0.878" fill="#ed3e53" d="M 84.5,21.5 C 85.8333,21.5 87.1667,21.5 88.5,21.5C 88.5,22.8333 88.5,24.1667 88.5,25.5C 87.1667,25.5 85.8333,25.5 84.5,25.5C 84.5,24.1667 84.5,22.8333 84.5,21.5 Z"/></g>
<g><path style="opacity:1" fill="#5f4b37" d="M 33.5,24.5 C 37.8461,24.3343 42.1794,24.501 46.5,25C 47.756,25.4169 48.4226,26.2502 48.5,27.5C 44.4044,25.7203 40.0711,25.0537 35.5,25.5C 34.5084,25.6716 33.8417,25.3382 33.5,24.5 Z"/></g>
<g><path style="opacity:1" fill="#726f3f" d="M 33.5,24.5 C 33.8417,25.3382 34.5084,25.6716 35.5,25.5C 36.3065,26.7281 37.3065,27.7281 38.5,28.5C 36.549,28.7733 35.049,28.1066 34,26.5C 33.5172,27.448 33.3505,28.448 33.5,29.5C 32.6364,28.3117 31.6364,27.1451 30.5,26C 31.2438,24.9614 32.2438,24.4614 33.5,24.5 Z"/></g>
<g><path style="opacity:1" fill="#85a843" d="M 35.5,25.5 C 40.0711,25.0537 44.4044,25.7203 48.5,27.5C 48.7406,29.8984 48.0739,31.8984 46.5,33.5C 44.832,31.66 43.332,29.66 42,27.5C 40.9887,28.3366 39.8221,28.67 38.5,28.5C 37.3065,27.7281 36.3065,26.7281 35.5,25.5 Z"/></g>
<g><path style="opacity:0.878" fill="#ed3e53" d="M 10.5,26.5 C 11.8333,26.5 13.1667,26.5 14.5,26.5C 14.5,27.8333 14.5,29.1667 14.5,30.5C 13.1667,30.5 11.8333,30.5 10.5,30.5C 10.5,29.1667 10.5,27.8333 10.5,26.5 Z"/></g>
<g><path style="opacity:1" fill="#84a643" d="M 38.5,28.5 C 41.1586,30.1635 43.8252,31.8302 46.5,33.5C 45.5849,35.7541 44.2516,37.7541 42.5,39.5C 40.4352,39.4828 38.4352,39.1495 36.5,38.5C 35.9459,35.2542 34.9459,32.2542 33.5,29.5C 33.3505,28.448 33.5172,27.448 34,26.5C 35.049,28.1066 36.549,28.7733 38.5,28.5 Z"/></g>
<g><path style="opacity:1" fill="#84a743" d="M 64.5,37.5 C 63.1667,38.1667 62.1667,39.1667 61.5,40.5C 58.3429,40.9215 56.0095,39.7548 54.5,37C 57.8059,35.347 61.1393,33.6804 64.5,32C 62.555,32.1282 60.7216,31.9615 59,31.5C 57.8261,33.6709 55.9928,34.6709 53.5,34.5C 53.5,32.8333 53.5,31.1667 53.5,29.5C 57.5738,28.0096 61.5738,28.1762 65.5,30C 65.9574,30.414 66.2907,30.914 66.5,31.5C 65.2528,33.323 64.5861,35.323 64.5,37.5 Z"/></g>
<g><path style="opacity:1" fill="#69583c" d="M 64.5,37.5 C 64.5861,35.323 65.2528,33.323 66.5,31.5C 66.2907,30.914 65.9574,30.414 65.5,30C 61.5738,28.1762 57.5738,28.0096 53.5,29.5C 53.6107,28.8826 53.944,28.3826 54.5,28C 58.6251,27.1462 62.6251,27.4796 66.5,29C 67.1667,29.6667 67.8333,30.3333 68.5,31C 67.2668,33.3143 65.9334,35.4809 64.5,37.5 Z"/></g>
<g><path style="opacity:1" fill="#5b5432" d="M 46.5,33.5 C 43.8252,31.8302 41.1586,30.1635 38.5,28.5C 39.8221,28.67 40.9887,28.3366 42,27.5C 43.332,29.66 44.832,31.66 46.5,33.5 Z"/></g>
<g><path style="opacity:1" fill="#645938" d="M 53.5,29.5 C 53.5,31.1667 53.5,32.8333 53.5,34.5C 55.9928,34.6709 57.8261,33.6709 59,31.5C 60.7216,31.9615 62.555,32.1282 64.5,32C 61.1393,33.6804 57.8059,35.347 54.5,37C 56.0095,39.7548 58.3429,40.9215 61.5,40.5C 60.0536,41.6129 58.3869,41.7796 56.5,41C 55.051,39.8978 53.7177,38.7311 52.5,37.5C 53.1079,35.7411 52.7746,33.9078 51.5,32C 51.6387,30.699 52.3054,29.8656 53.5,29.5 Z"/></g>
<g><path style="opacity:1" fill="#726043" d="M 33.5,29.5 C 34.9459,32.2542 35.9459,35.2542 36.5,38.5C 34.1376,36.081 33.1376,33.081 33.5,29.5 Z"/></g>
<g><path style="opacity:1" fill="#5f4a37" d="M 36.5,38.5 C 38.4352,39.1495 40.4352,39.4828 42.5,39.5C 41.9032,40.1386 41.0698,40.472 40,40.5C 38.3009,40.6134 37.1342,39.9468 36.5,38.5 Z"/></g>
<g><path style="opacity:1" fill="#785d49" d="M 48.5,27.5 C 48.4133,31.4133 48.9133,35.4133 50,39.5C 50.7083,38.6195 51.5416,37.9528 52.5,37.5C 50.9539,39.8825 50.2872,42.5491 50.5,45.5C 49.8333,45.5 49.1667,45.5 48.5,45.5C 48.8919,42.2784 48.3919,39.2784 47,36.5C 45.871,38.1412 44.371,39.1412 42.5,39.5C 44.2516,37.7541 45.5849,35.7541 46.5,33.5C 48.0739,31.8984 48.7406,29.8984 48.5,27.5 Z"/></g>
<g><path style="opacity:1" fill="#7a624a" d="M 64.5,37.5 C 64.5,39.5 63.5,40.5 61.5,40.5C 62.1667,39.1667 63.1667,38.1667 64.5,37.5 Z"/></g>
<g><path style="opacity:1" fill="#fefbf5" d="M 16.5,50.5 C 20.1612,50.3501 21.1612,51.8501 19.5,55C 15.7071,55.4866 14.7071,53.9866 16.5,50.5 Z"/></g>
<g><path style="opacity:1" fill="#4f302b" d="M 48.5,45.5 C 49.1667,45.5 49.8333,45.5 50.5,45.5C 56.5,45.5 62.5,45.5 68.5,45.5C 68.5,48.8333 68.5,52.1667 68.5,55.5C 67.5,55.5 66.5,55.5 65.5,55.5C 64.8859,61.8529 64.0526,68.1862 63,74.5C 54,75.8333 45,75.8333 36,74.5C 34.73,68.2154 33.8967,61.882 33.5,55.5C 32.5,55.5 31.5,55.5 30.5,55.5C 30.5,52.1667 30.5,48.8333 30.5,45.5C 36.5,45.5 42.5,45.5 48.5,45.5 Z"/></g>
<g><path style="opacity:1" fill="#8e4a2e" d="M 31.5,46.5 C 43.5,46.5 55.5,46.5 67.5,46.5C 67.5,49.1667 67.5,51.8333 67.5,54.5C 55.5,54.5 43.5,54.5 31.5,54.5C 31.5,51.8333 31.5,49.1667 31.5,46.5 Z"/></g>
<g><path style="opacity:1" fill="#b85d33" d="M 32.5,47.5 C 43.8333,47.5 55.1667,47.5 66.5,47.5C 66.5,49.5 66.5,51.5 66.5,53.5C 55.1667,53.5 43.8333,53.5 32.5,53.5C 32.5,51.5 32.5,49.5 32.5,47.5 Z"/></g>
<g><path style="opacity:1" fill="#bd5f33" d="M 34.5,55.5 C 44.5,55.5 54.5,55.5 64.5,55.5C 63.3922,61.8138 62.3922,68.1471 61.5,74.5C 53.5,74.5 45.5,74.5 37.5,74.5C 36.6078,68.1471 35.6078,61.8138 34.5,55.5 Z"/></g>
<g><path style="opacity:0.906" fill="#fbcd5a" d="M 12.5,58.5 C 18.5824,58.8463 19.9157,61.513 16.5,66.5C 10.9334,67.2468 9.10005,64.9134 11,59.5C 11.3826,58.944 11.8826,58.6107 12.5,58.5 Z"/></g>
<g><path style="opacity:1" fill="#f3c439" d="M 19.5,65.5 C 21.337,65.6395 21.6704,66.3061 20.5,67.5C 19.7025,67.0431 19.3691,66.3764 19.5,65.5 Z"/></g>
<g><path style="opacity:0.835" fill="#fbcf5a" d="M 77.5,74.5 C 77.5,73.8333 77.8333,73.5 78.5,73.5C 79.8333,73.5 81.1667,73.5 82.5,73.5C 82.5,74.8333 82.5,76.1667 82.5,77.5C 81.1667,77.5 79.8333,77.5 78.5,77.5C 78.7373,76.209 78.404,75.209 77.5,74.5 Z"/></g>
<g><path style="opacity:0.878" fill="#ed3e53" d="M 22.5,84.5 C 23.8333,84.5 25.1667,84.5 26.5,84.5C 26.5,85.8333 26.5,87.1667 26.5,88.5C 25.1667,88.5 23.8333,88.5 22.5,88.5C 22.5,87.1667 22.5,85.8333 22.5,84.5 Z"/></g>
</svg>
