<?xml version="1.0" encoding="UTF-8"?>
<!DOCTYPE svg PUBLIC "-//W3C//DTD SVG 1.1//EN" "http://www.w3.org/Graphics/SVG/1.1/DTD/svg11.dtd">
<svg xmlns="http://www.w3.org/2000/svg" version="1.1" width="100px" height="100px" style="shape-rendering:geometricPrecision; text-rendering:geometricPrecision; image-rendering:optimizeQuality; fill-rule:evenodd; clip-rule:evenodd" xmlns:xlink="http://www.w3.org/1999/xlink">
<g><path style="opacity:0.986" fill="#f8dad1" d="M 79.5,74.5 C 76.5,74.1667 75.1667,75.5 75.5,78.5C 59.2928,89.7333 42.6262,90.3999 25.5,80.5C 24.1667,78.5 22.5,76.8333 20.5,75.5C 20.1667,74.5 19.5,73.8333 18.5,73.5C 9.00447,57.4113 9.17114,41.4113 19,25.5C 34.015,10.1311 51.1816,7.29772 70.5,17C 84.6067,27.3049 90.1067,41.1383 87,58.5C 85.2893,64.2522 82.7893,69.5855 79.5,74.5 Z"/></g>
<g><path style="opacity:0.907" fill="#f0bc19" d="M 80.5,11.5 C 87.1584,10.3445 89.1584,12.8445 86.5,19C 79.7496,20.4689 77.7496,17.9689 80.5,11.5 Z"/></g>
<g><path style="opacity:0.766" fill="#f0bc18" d="M 76.5,12.5 C 78.337,12.6395 78.6704,13.3061 77.5,14.5C 76.7025,14.0431 76.3691,13.3764 76.5,12.5 Z"/></g>
<g><path style="opacity:0.878" fill="#ed3e53" d="M 11.5,23.5 C 12.8333,23.5 14.1667,23.5 15.5,23.5C 15.5,24.8333 15.5,26.1667 15.5,27.5C 14.1667,27.5 12.8333,27.5 11.5,27.5C 11.5,26.1667 11.5,24.8333 11.5,23.5 Z"/></g>
<g><path style="opacity:1" fill="#8b7d7b" d="M 74.5,28.5 C 74.815,32.3714 74.4816,36.0381 73.5,39.5C 73.5,36.1667 73.5,32.8333 73.5,29.5C 57.8333,29.5 42.1667,29.5 26.5,29.5C 26.5,32.8333 26.5,36.1667 26.5,39.5C 25.5184,36.0381 25.185,32.3714 25.5,28.5C 41.8333,27.1667 58.1667,27.1667 74.5,28.5 Z"/></g>
<g><path style="opacity:1" fill="#4a2e2c" d="M 25.5,28.5 C 25.185,32.3714 25.5184,36.0381 26.5,39.5C 42.1667,39.5 57.8333,39.5 73.5,39.5C 74.4816,36.0381 74.815,32.3714 74.5,28.5C 75.8986,35.403 75.7319,42.403 74,49.5C 70.6064,50.4558 67.1064,50.7892 63.5,50.5C 66.5,49.8333 69.5,49.1667 72.5,48.5C 73.2341,47.2921 73.5674,45.9587 73.5,44.5C 57.8192,44.1673 42.1525,44.5006 26.5,45.5C 27.1272,46.4168 27.4606,47.4168 27.5,48.5C 30.8333,49.1667 34.1667,49.8333 37.5,50.5C 37.1667,50.5 36.8333,50.5 36.5,50.5C 33.1016,50.8204 29.7683,50.487 26.5,49.5C 24.3201,42.4664 23.9868,35.4664 25.5,28.5 Z"/></g>
<g><path style="opacity:1" fill="#ecf6f4" d="M 73.5,39.5 C 57.8333,39.5 42.1667,39.5 26.5,39.5C 26.5,36.1667 26.5,32.8333 26.5,29.5C 42.1667,29.5 57.8333,29.5 73.5,29.5C 73.5,32.8333 73.5,36.1667 73.5,39.5 Z"/></g>
<g><path style="opacity:0.766" fill="#f0bc18" d="M 84.5,29.5 C 86.337,29.6395 86.6704,30.3061 85.5,31.5C 84.7025,31.0431 84.3691,30.3764 84.5,29.5 Z"/></g>
<g><path style="opacity:1" fill="#92b3d7" d="M 65.5,31.5 C 69.0229,31.188 70.3563,32.5213 69.5,35.5C 65.4668,36.7474 64.1335,35.414 65.5,31.5 Z"/></g>
<g><path style="opacity:1" fill="#eaf3f1" d="M 25.5,41.5 C 41.8469,41.1672 58.1803,41.5006 74.5,42.5C 66.3333,42.8333 58.1667,43.1667 50,43.5C 41.4716,43.4979 33.3049,42.8312 25.5,41.5 Z"/></g>
<g><path style="opacity:1" fill="#e7f0ee" d="M 72.5,48.5 C 69.4816,48.6646 66.4816,48.498 63.5,48C 64.8398,45.8215 64.5065,45.3215 62.5,46.5C 61.1667,46.5 59.8333,46.5 58.5,46.5C 54.1539,46.3343 49.8206,46.501 45.5,47C 48.1208,47.9056 47.9541,48.4056 45,48.5C 42.0459,48.4056 41.8792,47.9056 44.5,47C 41.5,46.3333 38.5,46.3333 35.5,47C 36.1667,47.3333 36.8333,47.6667 37.5,48C 34.1832,48.4983 30.8499,48.665 27.5,48.5C 27.4606,47.4168 27.1272,46.4168 26.5,45.5C 42.1525,44.5006 57.8192,44.1673 73.5,44.5C 73.5674,45.9587 73.2341,47.2921 72.5,48.5 Z"/></g>
<g><path style="opacity:1" fill="#7bc0c6" d="M 40.5,59.5 C 39.7412,63.4767 39.0746,67.4767 38.5,71.5C 34.1539,71.6657 29.8206,71.499 25.5,71C 30.9604,65.1102 34.627,58.2769 36.5,50.5C 36.8333,50.5 37.1667,50.5 37.5,50.5C 38.404,49.791 38.7373,48.791 38.5,47.5C 39.5,47.5 40.5,47.5 41.5,47.5C 41.1667,51.5 40.8333,55.5 40.5,59.5 Z"/></g>
<g><path style="opacity:1" fill="#7bc0c5" d="M 52.5,49.5 C 52.1984,52.0593 52.5318,54.3926 53.5,56.5C 54.9652,61.3538 56.2985,66.3538 57.5,71.5C 53.1667,71.5 48.8333,71.5 44.5,71.5C 45.0213,65.7484 46.0213,60.0817 47.5,54.5C 48.4682,52.3926 48.8016,50.0593 48.5,47.5C 50.4832,47.1568 51.8166,47.8235 52.5,49.5 Z"/></g>
<g><path style="opacity:1" fill="#6d6d6c" d="M 58.5,46.5 C 59.8333,46.5 61.1667,46.5 62.5,46.5C 62.5,46.8333 62.5,47.1667 62.5,47.5C 61.5,47.5 60.5,47.5 59.5,47.5C 59.5,50.1667 59.5,52.8333 59.5,55.5C 58.5489,54.0813 58.2155,52.4147 58.5,50.5C 56.8333,50.5 55.1667,50.5 53.5,50.5C 53.5,52.5 53.5,54.5 53.5,56.5C 52.5318,54.3926 52.1984,52.0593 52.5,49.5C 54.5,49.5 56.5,49.5 58.5,49.5C 58.5,48.5 58.5,47.5 58.5,46.5 Z"/></g>
<g><path style="opacity:1" fill="#7bbfc4" d="M 62.5,47.5 C 62.2322,49.099 62.5655,50.4324 63.5,51.5C 66.2822,57.0645 69.1156,62.7311 72,68.5C 73.2547,69.2106 74.4214,70.044 75.5,71C 71.1287,71.8275 66.7953,71.6609 62.5,70.5C 60.8718,65.6182 59.8718,60.6182 59.5,55.5C 59.5,52.8333 59.5,50.1667 59.5,47.5C 60.5,47.5 61.5,47.5 62.5,47.5 Z"/></g>
<g><path style="opacity:1" fill="#9b9795" d="M 58.5,46.5 C 58.5,47.5 58.5,48.5 58.5,49.5C 56.5,49.5 54.5,49.5 52.5,49.5C 51.8166,47.8235 50.4832,47.1568 48.5,47.5C 48.8016,50.0593 48.4682,52.3926 47.5,54.5C 47.5,53.1667 47.5,51.8333 47.5,50.5C 45.8333,50.5 44.1667,50.5 42.5,50.5C 42.3239,53.7273 41.6572,56.7273 40.5,59.5C 40.8333,55.5 41.1667,51.5 41.5,47.5C 40.5,47.5 39.5,47.5 38.5,47.5C 38.7373,48.791 38.404,49.791 37.5,50.5C 34.1667,49.8333 30.8333,49.1667 27.5,48.5C 30.8499,48.665 34.1832,48.4983 37.5,48C 36.8333,47.6667 36.1667,47.3333 35.5,47C 38.5,46.3333 41.5,46.3333 44.5,47C 41.8792,47.9056 42.0459,48.4056 45,48.5C 47.9541,48.4056 48.1208,47.9056 45.5,47C 49.8206,46.501 54.1539,46.3343 58.5,46.5 Z"/></g>
<g><path style="opacity:1" fill="#a19f9d" d="M 72.5,48.5 C 69.5,49.1667 66.5,49.8333 63.5,50.5C 63.5,50.8333 63.5,51.1667 63.5,51.5C 62.5655,50.4324 62.2322,49.099 62.5,47.5C 62.5,47.1667 62.5,46.8333 62.5,46.5C 64.5065,45.3215 64.8398,45.8215 63.5,48C 66.4816,48.498 69.4816,48.6646 72.5,48.5 Z"/></g>
<g><path style="opacity:0.877" fill="#fbcc59" d="M 18.5,73.5 C 19.5,73.8333 20.1667,74.5 20.5,75.5C 21.2468,81.0666 18.9134,82.9 13.5,81C 11.02,75.562 12.6867,73.062 18.5,73.5 Z"/></g>
<g><path style="opacity:0.878" fill="#facd5a" d="M 79.5,74.5 C 79.5,75.8333 79.5,77.1667 79.5,78.5C 78.1667,78.5 76.8333,78.5 75.5,78.5C 75.1667,75.5 76.5,74.1667 79.5,74.5 Z"/></g>
<g><path style="opacity:0.878" fill="#ed3e53" d="M 25.5,80.5 C 25.5,81.8333 25.5,83.1667 25.5,84.5C 24.1667,84.5 22.8333,84.5 21.5,84.5C 21.5,83.1667 21.5,81.8333 21.5,80.5C 22.8333,80.5 24.1667,80.5 25.5,80.5 Z"/></g>
</svg>
