<?xml version="1.0" encoding="UTF-8"?>
<!DOCTYPE svg PUBLIC "-//W3C//DTD SVG 1.1//EN" "http://www.w3.org/Graphics/SVG/1.1/DTD/svg11.dtd">
<svg xmlns="http://www.w3.org/2000/svg" version="1.1" width="100px" height="100px" style="shape-rendering:geometricPrecision; text-rendering:geometricPrecision; image-rendering:optimizeQuality; fill-rule:evenodd; clip-rule:evenodd" xmlns:xlink="http://www.w3.org/1999/xlink">
<g><path style="opacity:0.907" fill="#f0bc19" d="M 79.5,10.5 C 86.1584,9.34448 88.1584,11.8445 85.5,18C 78.7496,19.4689 76.7496,16.9689 79.5,10.5 Z"/></g>
<g><path style="opacity:0.766" fill="#f0bc18" d="M 75.5,11.5 C 77.337,11.6395 77.6704,12.3061 76.5,13.5C 75.7025,13.0431 75.3691,12.3764 75.5,11.5 Z"/></g>
<g><path style="opacity:0.991" fill="#ccdef0" d="M 78.5,73.5 C 78.5,73.8333 78.5,74.1667 78.5,74.5C 67.9094,84.8611 55.2428,88.6944 40.5,86C 29.4791,83.0176 21.4791,76.5176 16.5,66.5C 19.9157,61.513 18.5824,58.8463 12.5,58.5C 10.8095,26.0234 26.1429,10.8568 58.5,13C 80.274,20.3598 89.4407,35.5265 86,58.5C 84.541,64.0848 82.041,69.0848 78.5,73.5 Z"/></g>
<g><path style="opacity:0.875" fill="#77a0ce" d="M 84.5,21.5 C 85.8333,21.5 87.1667,21.5 88.5,21.5C 88.5,22.8333 88.5,24.1667 88.5,25.5C 87.1667,25.5 85.8333,25.5 84.5,25.5C 84.5,24.1667 84.5,22.8333 84.5,21.5 Z"/></g>
<g><path style="opacity:1" fill="#fae450" d="M 56.5,58.5 C 55.8166,60.1765 54.4832,60.8432 52.5,60.5C 52.5,55.8333 52.5,51.1667 52.5,46.5C 57.1743,44.1947 57.5077,41.528 53.5,38.5C 52.1667,39.1667 50.8333,39.8333 49.5,40.5C 45.2383,37.3822 43.0716,38.3822 43,43.5C 44.0391,44.7101 45.2058,45.7101 46.5,46.5C 46.5,51.1667 46.5,55.8333 46.5,60.5C 44.5168,60.8432 43.1834,60.1765 42.5,58.5C 40.2796,53.7283 37.7796,49.0616 35,44.5C 32.8631,36.9593 35.0298,31.126 41.5,27C 51.3483,23.0253 58.8483,25.5253 64,34.5C 64.6667,37.8333 64.6667,41.1667 64,44.5C 61.2204,49.0616 58.7204,53.7283 56.5,58.5 Z"/></g>
<g><path style="opacity:0.875" fill="#77a0ce" d="M 10.5,26.5 C 11.8333,26.5 13.1667,26.5 14.5,26.5C 14.5,27.8333 14.5,29.1667 14.5,30.5C 13.1667,30.5 11.8333,30.5 10.5,30.5C 10.5,29.1667 10.5,27.8333 10.5,26.5 Z"/></g>
<g><path style="opacity:1" fill="#644b3c" d="M 57.5,58.5 C 57.1667,58.5 56.8333,58.5 56.5,58.5C 58.7204,53.7283 61.2204,49.0616 64,44.5C 64.6667,41.1667 64.6667,37.8333 64,34.5C 58.8483,25.5253 51.3483,23.0253 41.5,27C 35.0298,31.126 32.8631,36.9593 35,44.5C 37.7796,49.0616 40.2796,53.7283 42.5,58.5C 42.1667,58.5 41.8333,58.5 41.5,58.5C 39.0117,54.1941 36.5117,49.8608 34,45.5C 31.1838,35.2983 34.6838,28.1316 44.5,24C 60.6825,22.5119 67.5158,29.6785 65,45.5C 62.4883,49.8608 59.9883,54.1941 57.5,58.5 Z"/></g>
<g><path style="opacity:1" fill="#6d5d61" d="M 25.5,32.5 C 26.9217,32.7086 28.255,33.2086 29.5,34C 27.5372,34.8442 26.2039,34.3442 25.5,32.5 Z"/></g>
<g><path style="opacity:1" fill="#896f37" d="M 52.5,46.5 C 52.1667,46.5 51.8333,46.5 51.5,46.5C 53.385,44.9468 54.385,42.9468 54.5,40.5C 52.5165,40.3832 50.8498,41.0499 49.5,42.5C 47.5929,40.2397 45.5929,40.073 43.5,42C 45.0414,43.3712 46.3747,44.8712 47.5,46.5C 47.1667,46.5 46.8333,46.5 46.5,46.5C 45.2058,45.7101 44.0391,44.7101 43,43.5C 43.0716,38.3822 45.2383,37.3822 49.5,40.5C 50.8333,39.8333 52.1667,39.1667 53.5,38.5C 57.5077,41.528 57.1743,44.1947 52.5,46.5 Z"/></g>
<g><path style="opacity:1" fill="#fbe550" d="M 51.5,46.5 C 51.5,51.1667 51.5,55.8333 51.5,60.5C 50.1667,60.5 48.8333,60.5 47.5,60.5C 47.5,55.8333 47.5,51.1667 47.5,46.5C 46.3747,44.8712 45.0414,43.3712 43.5,42C 45.5929,40.073 47.5929,40.2397 49.5,42.5C 50.8498,41.0499 52.5165,40.3832 54.5,40.5C 54.385,42.9468 53.385,44.9468 51.5,46.5 Z"/></g>
<g><path style="opacity:1" fill="#69585b" d="M 26.5,45.5 C 31.696,45.5649 31.696,46.2316 26.5,47.5C 25.537,47.0302 25.537,46.3635 26.5,45.5 Z"/></g>
<g><path style="opacity:1" fill="#472d2c" d="M 46.5,46.5 C 46.8333,46.5 47.1667,46.5 47.5,46.5C 47.5,51.1667 47.5,55.8333 47.5,60.5C 48.8333,60.5 50.1667,60.5 51.5,60.5C 51.5,55.8333 51.5,51.1667 51.5,46.5C 51.8333,46.5 52.1667,46.5 52.5,46.5C 52.5,51.1667 52.5,55.8333 52.5,60.5C 54.4832,60.8432 55.8166,60.1765 56.5,58.5C 56.8333,58.5 57.1667,58.5 57.5,58.5C 59.3357,66.4892 56.669,72.1559 49.5,75.5C 42.0369,72.3205 39.3702,66.6539 41.5,58.5C 41.8333,58.5 42.1667,58.5 42.5,58.5C 43.1834,60.1765 44.5168,60.8432 46.5,60.5C 46.5,55.8333 46.5,51.1667 46.5,46.5 Z"/></g>
<g><path style="opacity:1" fill="#6c5c60" d="M 66.5,51.5 C 67.4971,50.2875 68.4971,50.4542 69.5,52C 68.4232,52.4696 67.4232,52.3029 66.5,51.5 Z"/></g>
<g><path style="opacity:0.904" fill="#facd5c" d="M 12.5,58.5 C 18.5824,58.8463 19.9157,61.513 16.5,66.5C 10.9334,67.2468 9.10005,64.9134 11,59.5C 11.3826,58.944 11.8826,58.6107 12.5,58.5 Z"/></g>
<g><path style="opacity:1" fill="#c2bcaf" d="M 42.5,61.5 C 47.1667,61.5 51.8333,61.5 56.5,61.5C 56.5,62.5 56.5,63.5 56.5,64.5C 52.6893,64.5958 52.6893,65.2624 56.5,66.5C 55.624,67.2508 54.624,67.7508 53.5,68C 55.3008,68.3173 55.6341,68.984 54.5,70C 50.6384,70.9133 46.9717,70.5799 43.5,69C 45.8333,68.6667 48.1667,68.3333 50.5,68C 39.8333,67 39.8333,66 50.5,65C 47.854,64.5026 45.1873,64.3359 42.5,64.5C 42.5,63.5 42.5,62.5 42.5,61.5 Z"/></g>
<g><path style="opacity:1" fill="#e8c44b" d="M 19.5,65.5 C 21.337,65.6395 21.6704,66.3061 20.5,67.5C 19.7025,67.0431 19.3691,66.3764 19.5,65.5 Z"/></g>
<g><path style="opacity:0.835" fill="#facc58" d="M 78.5,73.5 C 79.8333,73.5 81.1667,73.5 82.5,73.5C 82.5,74.8333 82.5,76.1667 82.5,77.5C 81.1667,77.5 79.8333,77.5 78.5,77.5C 78.5,76.5 78.5,75.5 78.5,74.5C 78.5,74.1667 78.5,73.8333 78.5,73.5 Z"/></g>
<g><path style="opacity:0.875" fill="#77a0ce" d="M 22.5,84.5 C 23.8333,84.5 25.1667,84.5 26.5,84.5C 26.5,85.8333 26.5,87.1667 26.5,88.5C 25.1667,88.5 23.8333,88.5 22.5,88.5C 22.5,87.1667 22.5,85.8333 22.5,84.5 Z"/></g>
</svg>
