<?xml version="1.0" standalone="no"?>
<!DOCTYPE svg PUBLIC "-//W3C//DTD SVG 20010904//EN"
 "http://www.w3.org/TR/2001/REC-SVG-20010904/DTD/svg10.dtd">
<svg version="1.0" xmlns="http://www.w3.org/2000/svg"
 width="100.000000pt" height="100.000000pt" viewBox="0 0 100.000000 100.000000"
 preserveAspectRatio="xMidYMid meet">

<g transform="translate(0.000000,100.000000) scale(0.100000,-0.100000)"
fill="#000000" stroke="none">
<path d="M269 708 c-19 -16 -55 -73 -40 -64 6 4 11 0 11 -8 0 -9 -5 -16 -10
-16 -6 0 3 -13 20 -30 l31 -30 218 0 c198 0 219 2 234 18 10 10 17 27 17 37 0
15 2 16 18 4 16 -13 16 -13 0 7 -10 11 -18 30 -18 42 0 46 -29 52 -255 52
-154 0 -215 -3 -226 -12z m449 -14 c31 -21 31 -87 0 -108 -32 -23 -436 -12
-455 12 -32 39 -21 42 175 44 l187 3 -187 2 c-114 2 -188 7 -188 13 0 6 9 19
20 30 19 19 33 20 223 20 167 0 206 -3 225 -16z"/>
<path d="M648 643 c7 -3 16 -2 19 1 4 3 -2 6 -13 5 -11 0 -14 -3 -6 -6z"/>
<path d="M780 583 c-1 -42 -15 -48 -137 -54 l-118 -5 113 -2 c100 -2 114 0
132 18 18 18 28 60 15 60 -3 0 -5 -8 -5 -17z"/>
<path d="M296 522 c-3 -5 1 -9 9 -9 8 0 12 4 9 9 -3 4 -7 8 -9 8 -2 0 -6 -4
-9 -8z"/>
<path d="M502 508 c-7 -7 -12 -18 -12 -24 0 -7 -10 -14 -22 -16 -23 -3 -23 -6
-23 -138 l0 -135 45 0 45 0 1 134 c2 123 1 134 -17 138 -22 6 -25 23 -7 41 7
7 10 12 7 12 -3 0 -10 -5 -17 -12z m18 -68 c0 -5 -13 -10 -30 -10 -16 0 -30 5
-30 10 0 6 14 10 30 10 17 0 30 -4 30 -10z m-14 -37 c9 -12 13 -49 14 -105 l0
-88 -32 1 c-31 2 -31 2 -5 6 34 5 36 23 2 23 -24 0 -25 2 -25 70 0 39 6 79 12
90 16 24 17 24 34 3z"/>
<path d="M326 464 c-4 -10 -13 -14 -26 -11 -11 3 -18 1 -14 -4 3 -5 11 -9 18
-9 15 0 41 28 34 36 -3 3 -8 -3 -12 -12z"/>
<path d="M631 399 c-12 -19 -21 -38 -21 -44 1 -5 8 4 17 20 22 41 21 41 39 19
14 -18 14 -17 3 6 -6 14 -13 27 -15 29 -2 2 -12 -12 -23 -30z"/>
<path d="M681 365 c1 -19 18 -51 18 -35 0 8 -4 22 -9 30 -5 8 -9 11 -9 5z"/>
<path d="M610 311 c0 -13 39 -35 48 -27 3 3 0 6 -6 6 -6 0 -18 7 -26 16 -9 8
-16 11 -16 5z"/>
</g>
</svg>
