<?xml version="1.0" encoding="UTF-8"?>
<!DOCTYPE svg PUBLIC "-//W3C//DTD SVG 1.1//EN" "http://www.w3.org/Graphics/SVG/1.1/DTD/svg11.dtd">
<svg xmlns="http://www.w3.org/2000/svg" version="1.1" width="100px" height="100px" style="shape-rendering:geometricPrecision; text-rendering:geometricPrecision; image-rendering:optimizeQuality; fill-rule:evenodd; clip-rule:evenodd" xmlns:xlink="http://www.w3.org/1999/xlink">
<g><path style="opacity:0.907" fill="#f0bc19" d="M 79.5,10.5 C 86.1584,9.34448 88.1584,11.8445 85.5,18C 78.7496,19.4689 76.7496,16.9689 79.5,10.5 Z"/></g>
<g><path style="opacity:0.766" fill="#f0bc18" d="M 75.5,11.5 C 77.337,11.6395 77.6704,12.3061 76.5,13.5C 75.7025,13.0431 75.3691,12.3764 75.5,11.5 Z"/></g>
<g><path style="opacity:0.983" fill="#fce0a2" d="M 78.5,73.5 C 77.8333,73.5 77.5,73.8333 77.5,74.5C 67.4123,85.0265 55.079,88.8598 40.5,86C 29.4791,83.0176 21.4791,76.5176 16.5,66.5C 19.9157,61.513 18.5824,58.8463 12.5,58.5C 10.8095,26.0234 26.1429,10.8568 58.5,13C 80.274,20.3598 89.4407,35.5265 86,58.5C 84.541,64.0848 82.041,69.0848 78.5,73.5 Z"/></g>
<g><path style="opacity:0.878" fill="#ed3e53" d="M 84.5,21.5 C 85.8333,21.5 87.1667,21.5 88.5,21.5C 88.5,22.8333 88.5,24.1667 88.5,25.5C 87.1667,25.5 85.8333,25.5 84.5,25.5C 84.5,24.1667 84.5,22.8333 84.5,21.5 Z"/></g>
<g><path style="opacity:0.878" fill="#ed3e53" d="M 10.5,26.5 C 11.8333,26.5 13.1667,26.5 14.5,26.5C 14.5,27.8333 14.5,29.1667 14.5,30.5C 13.1667,30.5 11.8333,30.5 10.5,30.5C 10.5,29.1667 10.5,27.8333 10.5,26.5 Z"/></g>
<g><path style="opacity:1" fill="#4b2f2c" d="M 35.5,26.5 C 35.5,29.5 35.5,32.5 35.5,35.5C 36.8333,35.5 38.1667,35.5 39.5,35.5C 39.5,32.5 39.5,29.5 39.5,26.5C 40.4682,28.6074 40.8016,30.9407 40.5,33.5C 40.7678,35.099 40.4345,36.4324 39.5,37.5C 35.3656,36.5151 31.0323,36.1818 26.5,36.5C 28.9479,35.5269 31.6146,35.1936 34.5,35.5C 34.19,32.2869 34.5233,29.2869 35.5,26.5 Z"/></g>
<g><path style="opacity:1" fill="#c1bcb0" d="M 35.5,26.5 C 36.8333,26.5 38.1667,26.5 39.5,26.5C 39.5,29.5 39.5,32.5 39.5,35.5C 38.1667,35.5 36.8333,35.5 35.5,35.5C 35.5,32.5 35.5,29.5 35.5,26.5 Z"/></g>
<g><path style="opacity:1" fill="#4a2e2b" d="M 59.5,26.5 C 59.5,29.5 59.5,32.5 59.5,35.5C 60.8333,35.5 62.1667,35.5 63.5,35.5C 63.5,32.5 63.5,29.5 63.5,26.5C 64.4682,28.6074 64.8016,30.9407 64.5,33.5C 64.6567,34.8734 64.49,36.2068 64,37.5C 56.7345,36.8489 49.5678,36.1822 42.5,35.5C 47.8333,35.5 53.1667,35.5 58.5,35.5C 58.19,32.2869 58.5233,29.2869 59.5,26.5 Z"/></g>
<g><path style="opacity:1" fill="#c2beb2" d="M 59.5,26.5 C 60.8333,26.5 62.1667,26.5 63.5,26.5C 63.5,29.5 63.5,32.5 63.5,35.5C 62.1667,35.5 60.8333,35.5 59.5,35.5C 59.5,32.5 59.5,29.5 59.5,26.5 Z"/></g>
<g><path style="opacity:1" fill="#c1bdb0" d="M 26.5,36.5 C 31.0323,36.1818 35.3656,36.5151 39.5,37.5C 35.7264,40.262 31.3931,41.262 26.5,40.5C 26.5,39.1667 26.5,37.8333 26.5,36.5 Z"/></g>
<g><path style="opacity:1" fill="#fefbf5" d="M 16.5,40.5 C 20.1612,40.3501 21.1612,41.8501 19.5,45C 15.7071,45.4866 14.7071,43.9866 16.5,40.5 Z"/></g>
<g><path style="opacity:1" fill="#b3aca0" d="M 40.5,33.5 C 41.5,33.8333 42.1667,34.5 42.5,35.5C 49.5678,36.1822 56.7345,36.8489 64,37.5C 64.49,36.2068 64.6567,34.8734 64.5,33.5C 66.8201,35.2261 69.4867,35.8928 72.5,35.5C 72.5,37.1667 72.5,38.8333 72.5,40.5C 69.5,40.5 66.5,40.5 63.5,40.5C 63.5,46.5 63.5,52.5 63.5,58.5C 62.1667,58.5 60.8333,58.5 59.5,58.5C 59.8205,53.3054 59.4872,48.3054 58.5,43.5C 57.5,43.1667 56.8333,42.5 56.5,41.5C 53.5729,40.4181 47.9062,40.0847 39.5,40.5C 39.5,46.5 39.5,52.5 39.5,58.5C 38.1667,58.5 36.8333,58.5 35.5,58.5C 35.8205,53.3054 35.4872,48.3054 34.5,43.5C 31.9391,42.0823 29.2724,41.0823 26.5,40.5C 31.3931,41.262 35.7264,40.262 39.5,37.5C 40.4345,36.4324 40.7678,35.099 40.5,33.5 Z"/></g>
<g><path style="opacity:1" fill="#fbdfa1" d="M 56.5,41.5 C 56.8333,42.5 57.5,43.1667 58.5,43.5C 58.5,48.5 58.5,53.5 58.5,58.5C 53.1667,58.5 47.8333,58.5 42.5,58.5C 42.1667,57.5 41.5,56.8333 40.5,56.5C 40.5,51.5 40.5,46.5 40.5,41.5C 45.8333,41.5 51.1667,41.5 56.5,41.5 Z"/></g>
<g><path style="opacity:1" fill="#4a2e2c" d="M 56.5,41.5 C 51.1667,41.5 45.8333,41.5 40.5,41.5C 40.5,46.5 40.5,51.5 40.5,56.5C 40.6567,57.8734 40.49,59.2068 40,60.5C 35.5986,59.5333 31.0986,59.2 26.5,59.5C 28.9479,58.5269 31.6146,58.1936 34.5,58.5C 34.5,53.5 34.5,48.5 34.5,43.5C 35.4872,48.3054 35.8205,53.3054 35.5,58.5C 36.8333,58.5 38.1667,58.5 39.5,58.5C 39.5,52.5 39.5,46.5 39.5,40.5C 47.9062,40.0847 53.5729,40.4181 56.5,41.5 Z"/></g>
<g><path style="opacity:1" fill="#482c2a" d="M 72.5,40.5 C 70.0521,41.4731 67.3854,41.8064 64.5,41.5C 64.5,46.5 64.5,51.5 64.5,56.5C 64.6567,57.8734 64.49,59.2068 64,60.5C 56.7345,59.8489 49.5678,59.1822 42.5,58.5C 47.8333,58.5 53.1667,58.5 58.5,58.5C 58.5,53.5 58.5,48.5 58.5,43.5C 59.4872,48.3054 59.8205,53.3054 59.5,58.5C 60.8333,58.5 62.1667,58.5 63.5,58.5C 63.5,52.5 63.5,46.5 63.5,40.5C 66.5,40.5 69.5,40.5 72.5,40.5 Z"/></g>
<g><path style="opacity:0.906" fill="#fbcd5a" d="M 12.5,58.5 C 18.5824,58.8463 19.9157,61.513 16.5,66.5C 10.9334,67.2468 9.10005,64.9134 11,59.5C 11.3826,58.944 11.8826,58.6107 12.5,58.5 Z"/></g>
<g><path style="opacity:1" fill="#aba297" d="M 40.5,56.5 C 41.5,56.8333 42.1667,57.5 42.5,58.5C 49.5678,59.1822 56.7345,59.8489 64,60.5C 64.49,59.2068 64.6567,57.8734 64.5,56.5C 66.8201,58.2261 69.4867,58.8928 72.5,58.5C 72.5,60.1667 72.5,61.8333 72.5,63.5C 69.5,63.5 66.5,63.5 63.5,63.5C 63.5,66.5 63.5,69.5 63.5,72.5C 61.8333,72.5 60.1667,72.5 58.5,72.5C 58.8928,69.4867 58.2261,66.8201 56.5,64.5C 53.5729,63.4181 47.9062,63.0847 39.5,63.5C 39.5,66.5 39.5,69.5 39.5,72.5C 37.8333,72.5 36.1667,72.5 34.5,72.5C 35.5,66.1667 32.8333,63.5 26.5,64.5C 26.5,62.8333 26.5,61.1667 26.5,59.5C 31.0986,59.2 35.5986,59.5333 40,60.5C 40.49,59.2068 40.6567,57.8734 40.5,56.5 Z"/></g>
<g><path style="opacity:1" fill="#4b2f2d" d="M 56.5,64.5 C 51.1667,64.5 45.8333,64.5 40.5,64.5C 40.8064,67.3854 40.4731,70.0521 39.5,72.5C 39.5,69.5 39.5,66.5 39.5,63.5C 47.9062,63.0847 53.5729,63.4181 56.5,64.5 Z"/></g>
<g><path style="opacity:1" fill="#f3c439" d="M 19.5,64.5 C 21.337,64.6395 21.6704,65.3061 20.5,66.5C 19.7025,66.0431 19.3691,65.3764 19.5,64.5 Z"/></g>
<g><path style="opacity:1" fill="#4a2d2b" d="M 72.5,63.5 C 70.0521,64.4731 67.3854,64.8064 64.5,64.5C 64.8064,67.3854 64.4731,70.0521 63.5,72.5C 63.5,69.5 63.5,66.5 63.5,63.5C 66.5,63.5 69.5,63.5 72.5,63.5 Z"/></g>
<g><path style="opacity:0.835" fill="#fbcf5a" d="M 77.5,74.5 C 77.5,73.8333 77.8333,73.5 78.5,73.5C 79.8333,73.5 81.1667,73.5 82.5,73.5C 82.5,74.8333 82.5,76.1667 82.5,77.5C 81.1667,77.5 79.8333,77.5 78.5,77.5C 78.7373,76.209 78.404,75.209 77.5,74.5 Z"/></g>
<g><path style="opacity:0.878" fill="#ed3e53" d="M 22.5,84.5 C 23.8333,84.5 25.1667,84.5 26.5,84.5C 26.5,85.8333 26.5,87.1667 26.5,88.5C 25.1667,88.5 23.8333,88.5 22.5,88.5C 22.5,87.1667 22.5,85.8333 22.5,84.5 Z"/></g>
</svg>
