<?xml version="1.0" encoding="UTF-8"?>
<!DOCTYPE svg PUBLIC "-//W3C//DTD SVG 1.1//EN" "http://www.w3.org/Graphics/SVG/1.1/DTD/svg11.dtd">
<svg xmlns="http://www.w3.org/2000/svg" version="1.1" width="100px" height="100px" style="shape-rendering:geometricPrecision; text-rendering:geometricPrecision; image-rendering:optimizeQuality; fill-rule:evenodd; clip-rule:evenodd" xmlns:xlink="http://www.w3.org/1999/xlink">
<g><path style="opacity:0.989" fill="#f8dad1" d="M 79.5,74.5 C 76.5,74.1667 75.1667,75.5 75.5,78.5C 59.2928,89.7333 42.6262,90.3999 25.5,80.5C 24.1667,78.5 22.5,76.8333 20.5,75.5C 20.1667,74.5 19.5,73.8333 18.5,73.5C 9.00447,57.4113 9.17114,41.4113 19,25.5C 34.015,10.1311 51.1816,7.29772 70.5,17C 84.6067,27.3049 90.1067,41.1383 87,58.5C 85.2893,64.2522 82.7893,69.5855 79.5,74.5 Z"/></g>
<g><path style="opacity:0.907" fill="#f0bc19" d="M 80.5,11.5 C 87.1584,10.3445 89.1584,12.8445 86.5,19C 79.7496,20.4689 77.7496,17.9689 80.5,11.5 Z"/></g>
<g><path style="opacity:0.766" fill="#f0bc18" d="M 76.5,12.5 C 78.337,12.6395 78.6704,13.3061 77.5,14.5C 76.7025,14.0431 76.3691,13.3764 76.5,12.5 Z"/></g>
<g><path style="opacity:0.878" fill="#ed3e53" d="M 11.5,23.5 C 12.8333,23.5 14.1667,23.5 15.5,23.5C 15.5,24.8333 15.5,26.1667 15.5,27.5C 14.1667,27.5 12.8333,27.5 11.5,27.5C 11.5,26.1667 11.5,24.8333 11.5,23.5 Z"/></g>
<g><path style="opacity:1" fill="#e2af1b" d="M 70.5,23.5 C 69.6178,26.385 68.2845,29.0517 66.5,31.5C 65.6618,31.8417 65.3284,32.5084 65.5,33.5C 62.4395,37.7529 63.4395,39.0862 68.5,37.5C 70.153,37.3404 71.4863,36.6737 72.5,35.5C 74.7346,34.7721 76.5679,33.4388 78,31.5C 79.0386,32.2438 79.5386,33.2438 79.5,34.5C 78.1667,35.1667 77.1667,36.1667 76.5,37.5C 74.9731,37.427 73.9731,38.0937 73.5,39.5C 70.5465,40.4279 67.5465,41.2612 64.5,42C 59.9645,46.7033 55.2979,51.2033 50.5,55.5C 46.7929,57.6885 43.4595,60.3552 40.5,63.5C 40.5,63.8333 40.5,64.1667 40.5,64.5C 38.9519,64.1788 38.2852,63.1788 38.5,61.5C 39.9063,61.0269 40.573,60.0269 40.5,58.5C 42.1667,57.5 43.5,56.1667 44.5,54.5C 49.798,49.7031 54.9646,44.7031 60,39.5C 61.2022,37.3225 61.7022,34.9892 61.5,32.5C 62.3382,32.1583 62.6716,31.4916 62.5,30.5C 63.9063,30.0269 64.573,29.0269 64.5,27.5C 66.2459,25.7484 68.2459,24.4151 70.5,23.5 Z"/></g>
<g><path style="opacity:1" fill="#78573d" d="M 70.5,23.5 C 68.2459,24.4151 66.2459,25.7484 64.5,27.5C 65.3803,23.8867 67.3803,22.5533 70.5,23.5 Z"/></g>
<g><path style="opacity:1" fill="#6f5447" d="M 70.5,23.5 C 70.9334,26.3865 72.2667,28.8865 74.5,31C 76.3801,30.4902 78.2134,30.6569 80,31.5C 80.7401,32.7494 80.5735,33.7494 79.5,34.5C 79.5386,33.2438 79.0386,32.2438 78,31.5C 76.5679,33.4388 74.7346,34.7721 72.5,35.5C 71.6759,31.9613 69.6759,30.628 66.5,31.5C 68.2845,29.0517 69.6178,26.385 70.5,23.5 Z"/></g>
<g><path style="opacity:1" fill="#745336" d="M 64.5,27.5 C 64.573,29.0269 63.9063,30.0269 62.5,30.5C 62.427,28.9731 63.0937,27.9731 64.5,27.5 Z"/></g>
<g><path style="opacity:0.766" fill="#f0bc18" d="M 84.5,29.5 C 86.337,29.6395 86.6704,30.3061 85.5,31.5C 84.7025,31.0431 84.3691,30.3764 84.5,29.5 Z"/></g>
<g><path style="opacity:1" fill="#d8bab0" d="M 72.5,35.5 C 71.4863,36.6737 70.153,37.3404 68.5,37.5C 67.5,37.5 66.5,37.5 65.5,37.5C 65.5,36.1667 65.5,34.8333 65.5,33.5C 65.3284,32.5084 65.6618,31.8417 66.5,31.5C 69.6759,30.628 71.6759,31.9613 72.5,35.5 Z"/></g>
<g><path style="opacity:1" fill="#745543" d="M 65.5,33.5 C 65.5,34.8333 65.5,36.1667 65.5,37.5C 66.5,37.5 67.5,37.5 68.5,37.5C 63.4395,39.0862 62.4395,37.7529 65.5,33.5 Z"/></g>
<g><path style="opacity:1" fill="#7a5943" d="M 76.5,37.5 C 76.0269,38.9063 75.0269,39.573 73.5,39.5C 73.9731,38.0937 74.9731,37.427 76.5,37.5 Z"/></g>
<g><path style="opacity:1" fill="#7d5b3b" d="M 61.5,32.5 C 61.7022,34.9892 61.2022,37.3225 60,39.5C 54.9646,44.7031 49.798,49.7031 44.5,54.5C 44.5,54.1667 44.5,53.8333 44.5,53.5C 49.1302,48.3687 53.9635,43.3687 59,38.5C 59.5662,36.2774 60.3995,34.2774 61.5,32.5 Z"/></g>
<g><path style="opacity:1" fill="#a2847a" d="M 73.5,39.5 C 73.5299,40.4972 73.0299,41.1639 72,41.5C 69.8649,42.1271 67.6982,42.6271 65.5,43C 60.5749,48.432 55.2416,53.2653 49.5,57.5C 49.8333,56.8333 50.1667,56.1667 50.5,55.5C 55.2979,51.2033 59.9645,46.7033 64.5,42C 67.5465,41.2612 70.5465,40.4279 73.5,39.5 Z"/></g>
<g><path style="opacity:1" fill="#b2861f" d="M 50.5,55.5 C 50.1667,56.1667 49.8333,56.8333 49.5,57.5C 48.1667,58.1667 47.1667,59.1667 46.5,60.5C 44.4832,61.5294 42.4832,62.5294 40.5,63.5C 43.4595,60.3552 46.7929,57.6885 50.5,55.5 Z"/></g>
<g><path style="opacity:0.877" fill="#fbcc59" d="M 18.5,73.5 C 19.5,73.8333 20.1667,74.5 20.5,75.5C 21.2468,81.0666 18.9134,82.9 13.5,81C 11.02,75.562 12.6867,73.062 18.5,73.5 Z"/></g>
<g><path style="opacity:0.878" fill="#facd5a" d="M 79.5,74.5 C 79.5,75.8333 79.5,77.1667 79.5,78.5C 78.1667,78.5 76.8333,78.5 75.5,78.5C 75.1667,75.5 76.5,74.1667 79.5,74.5 Z"/></g>
<g><path style="opacity:1" fill="#634944" d="M 44.5,53.5 C 44.5,53.8333 44.5,54.1667 44.5,54.5C 43.5,56.1667 42.1667,57.5 40.5,58.5C 42.2843,54.8574 41.2843,52.1907 37.5,50.5C 28.5508,55.7287 25.0508,63.3954 27,73.5C 27.8333,74.3333 28.6667,75.1667 29.5,76C 39.5465,77.8015 47.2132,74.3015 52.5,65.5C 51.0692,63.0623 49.0692,61.3956 46.5,60.5C 47.1667,59.1667 48.1667,58.1667 49.5,57.5C 50.264,60.787 52.0973,63.4537 55,65.5C 52.6937,67.8063 49.8604,70.6396 46.5,74C 41.0364,78.4317 35.0364,79.4317 28.5,77C 23.3318,70.7402 23.1651,64.2402 28,57.5C 31.4038,54.6006 34.2371,51.2673 36.5,47.5C 38.921,49.9337 41.5877,51.9337 44.5,53.5 Z"/></g>
<g><path style="opacity:1" fill="#6e5035" d="M 40.5,58.5 C 40.573,60.0269 39.9063,61.0269 38.5,61.5C 38.427,59.9731 39.0937,58.9731 40.5,58.5 Z"/></g>
<g><path style="opacity:1" fill="#c2beb2" d="M 40.5,58.5 C 39.0937,58.9731 38.427,59.9731 38.5,61.5C 37.6091,62.2613 36.9424,63.2613 36.5,64.5C 37.9584,65.782 39.2918,65.782 40.5,64.5C 40.5,64.1667 40.5,63.8333 40.5,63.5C 42.4832,62.5294 44.4832,61.5294 46.5,60.5C 49.0692,61.3956 51.0692,63.0623 52.5,65.5C 47.2132,74.3015 39.5465,77.8015 29.5,76C 28.6667,75.1667 27.8333,74.3333 27,73.5C 25.0508,63.3954 28.5508,55.7287 37.5,50.5C 41.2843,52.1907 42.2843,54.8574 40.5,58.5 Z"/></g>
<g><path style="opacity:1" fill="#6f5b55" d="M 48.5,65.5 C 49.2389,65.369 49.9056,65.5357 50.5,66C 48.273,68.9349 45.6064,70.9349 42.5,72C 44.7059,69.9633 46.7059,67.7966 48.5,65.5 Z"/></g>
<g><path style="opacity:1" fill="#7c5b33" d="M 38.5,61.5 C 38.2852,63.1788 38.9519,64.1788 40.5,64.5C 39.2918,65.782 37.9584,65.782 36.5,64.5C 36.9424,63.2613 37.6091,62.2613 38.5,61.5 Z"/></g>
<g><path style="opacity:0.878" fill="#ed3e53" d="M 25.5,80.5 C 25.5,81.8333 25.5,83.1667 25.5,84.5C 24.1667,84.5 22.8333,84.5 21.5,84.5C 21.5,83.1667 21.5,81.8333 21.5,80.5C 22.8333,80.5 24.1667,80.5 25.5,80.5 Z"/></g>
</svg>
