<?xml version="1.0" encoding="UTF-8"?>
<svg version="1.1" xmlns="http://www.w3.org/2000/svg" width="100" height="100">
<path d="M0 0 C9.40707465 5.68464327 15.68680199 13.83643636 18.546875 24.5390625 C19.81816587 35.18018906 19.08411233 45.14253855 13.546875 54.5390625 C12.556875 55.5290625 12.556875 55.5290625 11.546875 56.5390625 C13.031875 57.0340625 13.031875 57.0340625 14.546875 57.5390625 C14.546875 58.8590625 14.546875 60.1790625 14.546875 61.5390625 C13.226875 61.5390625 11.906875 61.5390625 10.546875 61.5390625 C10.216875 60.8790625 9.886875 60.2190625 9.546875 59.5390625 C9.01320313 59.99796875 8.47953125 60.456875 7.9296875 60.9296875 C-2.56169886 69.56965274 -11.91574525 71.83539098 -25.31445312 70.80957031 C-34.8744138 69.60038807 -42.8797787 64.22976046 -48.828125 56.828125 C-51.453125 53.09114583 -51.453125 53.09114583 -51.453125 50.5390625 C-52.2575 50.5596875 -53.061875 50.5803125 -53.890625 50.6015625 C-56.453125 50.5390625 -56.453125 50.5390625 -57.453125 49.5390625 C-57.578125 46.5390625 -57.578125 46.5390625 -57.453125 43.5390625 C-56.958125 43.0440625 -56.958125 43.0440625 -56.453125 42.5390625 C-56.37687052 40.5797461 -56.30610979 38.62003955 -56.26513672 36.65966797 C-55.96707395 24.96481162 -53.82146128 15.03480794 -45.4765625 6.2890625 C-32.87910695 -4.60603419 -15.10756629 -7.47031593 0 0 Z " fill="#CEE0F2" transform="translate(68.453125,16.4609375)"/>
<path d="M0 0 C1.17369141 0.11794922 1.17369141 0.11794922 2.37109375 0.23828125 C4.5625 0.6875 4.5625 0.6875 7.5625 2.6875 C11.38631798 3.04155722 13.72818505 3.18808897 17.0625 1.1875 C20.55301225 -0.90680735 22.53093864 -0.85004151 26.5625 -0.3125 C29.5325 1.3375 32.5025 2.9875 35.5625 4.6875 C35.5625 17.8875 35.5625 31.0875 35.5625 44.6875 C30.5625 43.6875 30.5625 43.6875 27.5625 41.6875 C21.67960185 41.20529523 18.8274285 41.94058078 13.5625 44.6875 C9.97705901 45.12653359 8.26107405 45.12870466 5.1875 43.1875 C1.610614 41.14356514 -1.40064908 41.04880959 -5.4375 41.6875 C-8.20191969 43.09509341 -8.20191969 43.09509341 -10.4375 44.6875 C-11.4275 44.6875 -12.4175 44.6875 -13.4375 44.6875 C-13.4375 31.1575 -13.4375 17.6275 -13.4375 3.6875 C-11.1275 2.6975 -8.8175 1.7075 -6.4375 0.6875 C-3.97648622 -0.54300689 -2.71323817 -0.29850075 0 0 Z " fill="#814936" transform="translate(39.4375,27.3125)"/>
<path d="M0 0 C2.8125 2 2.8125 2 5 4 C5.99 4 6.98 4 8 4 C8 10.27 8 16.54 8 23 C1 20 1 20 -1 19 C-5.92474939 18.57689009 -5.92474939 18.57689009 -10.3125 20.5 C-10.869375 20.995 -11.42625 21.49 -12 22 C-12.66 22 -13.32 22 -14 22 C-14 15.73 -14 9.46 -14 3 C-7.77945469 -0.11027266 -6.43567632 -0.71507515 0 0 Z " fill="#EA7859" transform="translate(67,48)"/>
<path d="M0 0 C2.734375 0.94921875 2.734375 0.94921875 5 3 C5.63142776 6.07748175 5.46958837 9.06264976 5.3125 12.1875 C5.28994141 13.03248047 5.26738281 13.87746094 5.24414062 14.74804688 C5.18524963 16.83278798 5.09556798 18.91661804 5 21 C4.2471875 20.67644531 3.494375 20.35289063 2.71875 20.01953125 C-0.73872108 18.72297959 -3.32916637 18.672247 -7 19 C-8.69719127 19.94726954 -10.36935236 20.94228261 -12 22 C-13.32 22 -14.64 22 -16 22 C-16 16.06 -16 10.12 -16 4 C-14.68 3.67 -13.36 3.34 -12 3 C-11.4225 2.484375 -10.845 1.96875 -10.25 1.4375 C-7.00743938 -0.63413595 -3.69672892 -0.70217197 0 0 Z " fill="#EA7859" transform="translate(42,48)"/>
<path d="M0 0 C3.25 2 3.25 2 6 4 C6.99 4 7.98 4 9 4 C9 9.61 9 15.22 9 21 C4 20 4 20 2.125 18.9375 C-1.04913465 17.53714648 -3.56658564 17.704016 -7 18 C-9.02295852 18.9527008 -11.02738352 19.94701177 -13 21 C-13.16225719 18.24763726 -13.2809328 15.50482524 -13.375 12.75 C-13.42527344 11.97269531 -13.47554687 11.19539063 -13.52734375 10.39453125 C-13.58563835 8.12104202 -13.55313639 6.20805764 -13 4 C-8.76427759 0.20082836 -5.64236253 -0.80605179 0 0 Z " fill="#EA7859" transform="translate(66,29)"/>
<path d="M0 0 C2.265625 2.01953125 2.265625 2.01953125 2.66235352 3.859375 C2.75938657 6.16125789 2.70079507 8.40649566 2.578125 10.70703125 C2.55556641 11.50431641 2.53300781 12.30160156 2.50976562 13.12304688 C2.45089444 15.08934459 2.36121255 17.05467616 2.265625 19.01953125 C1.5128125 18.6946875 0.76 18.36984375 -0.015625 18.03515625 C-5.36492288 16.03685532 -9.63642455 16.81973071 -14.734375 19.01953125 C-14.84225318 16.24766137 -14.92160827 13.47997588 -14.984375 10.70703125 C-15.01789062 9.92134766 -15.05140625 9.13566406 -15.0859375 8.32617188 C-15.18453965 2.53329533 -15.18453965 2.53329533 -12.96484375 0 C-8.48062075 -1.97117333 -4.46006408 -1.59925155 0 0 Z " fill="#EA7859" transform="translate(44.734375,29.98046875)"/>
<path d="M0 0 C1.17369141 0.11794922 1.17369141 0.11794922 2.37109375 0.23828125 C4.5625 0.6875 4.5625 0.6875 7.5625 2.6875 C11.38631798 3.04155722 13.72818505 3.18808897 17.0625 1.1875 C20.55301225 -0.90680735 22.53093864 -0.85004151 26.5625 -0.3125 C29.70965551 1.13308339 32.64064385 2.83235324 35.5625 4.6875 C34.5725 5.0175 33.5825 5.3475 32.5625 5.6875 C32.5625 7.9975 32.5625 10.3075 32.5625 12.6875 C32.2325 12.6875 31.9025 12.6875 31.5625 12.6875 C31.48 11.40875 31.3975 10.13 31.3125 8.8125 C30.96858063 5.58634326 30.96858063 5.58634326 28.9375 3.1875 C24.64128539 2.28303377 21.05001072 2.14381918 16.890625 3.6640625 C14.25905867 5.95122921 14.18182403 6.39668154 13.85546875 9.69921875 C13.79580648 11.2570669 13.76150987 12.81605229 13.75 14.375 C13.72486328 15.17228516 13.69972656 15.96957031 13.67382812 16.79101562 C13.61499685 18.7559802 13.58587596 20.72179391 13.5625 22.6875 C11.2525 22.6875 8.9425 22.6875 6.5625 22.6875 C6.8925 16.7475 7.2225 10.8075 7.5625 4.6875 C2.25584202 2.56483681 0.0718297 2.33205937 -5.4375 2.6875 C-8.57020409 4.28016174 -8.57020409 4.28016174 -8.86987305 6.56689453 C-8.89605713 7.31052246 -8.92224121 8.05415039 -8.94921875 8.8203125 C-8.98466797 9.62597656 -9.02011719 10.43164062 -9.05664062 11.26171875 C-9.07919922 12.10347656 -9.10175781 12.94523437 -9.125 13.8125 C-9.15916016 14.66199219 -9.19332031 15.51148438 -9.22851562 16.38671875 C-9.31109173 18.48651105 -9.37596978 20.58698564 -9.4375 22.6875 C-10.7575 22.6875 -12.0775 22.6875 -13.4375 22.6875 C-13.4375 16.4175 -13.4375 10.1475 -13.4375 3.6875 C-11.1275 2.6975 -8.8175 1.7075 -6.4375 0.6875 C-3.97648622 -0.54300689 -2.71323817 -0.29850075 0 0 Z " fill="#6A443D" transform="translate(39.4375,27.3125)"/>
<path d="M0 0 C1.32 0 2.64 0 4 0 C5.13480527 3.60993172 5.10015767 6.9842327 5.0625 10.75 C5.05347656 11.92046875 5.04445313 13.0909375 5.03515625 14.296875 C5.02355469 15.18890625 5.01195312 16.0809375 5 17 C2.69 17 0.38 17 -2 17 C-1.34 11.39 -0.68 5.78 0 0 Z " fill="#B85D33" transform="translate(48,33)"/>
<path d="M0 0 C0.99 0 1.98 0 3 0 C4.59412284 3.18824568 4.10174735 6.62896662 4.0625 10.125 C4.05798828 10.87910156 4.05347656 11.63320313 4.04882812 12.41015625 C4.03703499 14.27347127 4.01909942 16.13674555 4 18 C2.68 18 1.36 18 0 18 C0 12.06 0 6.12 0 0 Z " fill="#B85D33" transform="translate(26,52)"/>
<path d="M0 0 C0.99 0 1.98 0 3 0 C3 6.27 3 12.54 3 19 C1.68 18.67 0.36 18.34 -1 18 C-1.02707139 15.75006641 -1.04642829 13.50003905 -1.0625 11.25 C-1.07410156 9.99703125 -1.08570312 8.7440625 -1.09765625 7.453125 C-1.02021027 4.71463499 -0.82780815 2.58119707 0 0 Z " fill="#BA5E33" transform="translate(72,52)"/>
<path d="M0 0 C0.99 0 1.98 0 3 0 C4.53266582 3.06533164 4.10276471 6.26754272 4.0625 9.625 C4.05798828 10.33140625 4.05347656 11.0378125 4.04882812 11.765625 C4.03703875 13.51045275 4.01910324 15.255237 4 17 C2.68 17 1.36 17 0 17 C0 11.39 0 5.78 0 0 Z " fill="#B75D33" transform="translate(26,33)"/>
<path d="M0 0 C0.99 0 1.98 0 3 0 C3 5.61 3 11.22 3 17 C1.68 17 0.36 17 -1 17 C-1.10477512 11.21408489 -0.99250545 5.70690634 0 0 Z " fill="#BA5E33" transform="translate(72,33)"/>
<path d="M0 0 C3 0.125 3 0.125 4 1.125 C4.125 4.125 4.125 4.125 4 7.125 C3 8.125 3 8.125 0 8.25 C-3 8.125 -3 8.125 -4 7.125 C-4.125 4.125 -4.125 4.125 -4 1.125 C-3 0.125 -3 0.125 0 0 Z " fill="#F0BC19" transform="translate(83,10.875)"/>
<path d="M0 0 C2.5625 0.1875 2.5625 0.1875 4.5625 2.1875 C4.00694444 6.74305556 4.00694444 6.74305556 2.5625 8.1875 C0.0625 8.3125 0.0625 8.3125 -2.4375 8.1875 C-3.4375 7.1875 -3.4375 7.1875 -3.5625 4.1875 C-3.39891479 0.26145498 -3.39891479 0.26145498 0 0 Z " fill="#FACD5C" transform="translate(14.4375,58.8125)"/>
<path d="M0 0 C1.98 0.495 1.98 0.495 4 1 C3.67 2.32 3.34 3.64 3 5 C1.68 4.67 0.36 4.34 -1 4 C-0.67 2.68 -0.34 1.36 0 0 Z " fill="#F9FBFD" transform="translate(17,51)"/>
<path d="M0 0 C1.32 0 2.64 0 4 0 C4 1.32 4 2.64 4 4 C2.68 4 1.36 4 0 4 C0 2.68 0 1.36 0 0 Z " fill="#77A0CE" transform="translate(23,85)"/>
<path d="M0 0 C1.32 0 2.64 0 4 0 C4 1.32 4 2.64 4 4 C2.68 4 1.36 4 0 4 C0 2.68 0 1.36 0 0 Z " fill="#77A0CE" transform="translate(11,27)"/>
<path d="M0 0 C1.32 0 2.64 0 4 0 C4 1.32 4 2.64 4 4 C2.68 4 1.36 4 0 4 C0 2.68 0 1.36 0 0 Z " fill="#77A0CE" transform="translate(85,22)"/>
<path d="M0 0 C0.66 0 1.32 0 2 0 C2 0.66 2 1.32 2 2 C1.34 2 0.68 2 0 2 C0 1.34 0 0.68 0 0 Z " fill="#F1BC19" transform="translate(76,12)"/>
</svg>
