<?xml version="1.0" standalone="no"?>
<!DOCTYPE svg PUBLIC "-//W3C//DTD SVG 20010904//EN"
 "http://www.w3.org/TR/2001/REC-SVG-20010904/DTD/svg10.dtd">
<svg version="1.0" xmlns="http://www.w3.org/2000/svg"
 width="100.000000pt" height="100.000000pt" viewBox="0 0 100.000000 100.000000"
 preserveAspectRatio="xMidYMid meet">

<g transform="translate(0.000000,100.000000) scale(0.100000,-0.100000)"
fill="#000000" stroke="none">
<path d="M610 724 c-47 -8 -100 -16 -117 -19 l-33 -6 0 -89 0 -90 125 0 125 0
0 104 c0 58 -3 107 -7 109 -5 2 -46 -2 -93 -9z m80 -99 l0 -95 -105 0 -105 0
0 80 0 79 33 6 c63 11 142 23 160 24 15 1 17 -10 17 -94z"/>
<path d="M610 689 c-19 -7 -16 -8 17 -4 37 4 42 3 46 -17 4 -20 4 -19 6 5 1
22 -3 27 -21 26 -13 -1 -34 -5 -48 -10z"/>
<path d="M673 590 c0 -25 2 -35 4 -22 2 12 2 32 0 45 -2 12 -4 2 -4 -23z"/>
<path d="M340 684 c-41 -7 -76 -13 -77 -13 -2 -1 -3 -35 -3 -76 l0 -75 90 0
90 0 0 90 c0 66 -3 90 -12 89 -7 -1 -47 -7 -88 -15z m80 -79 l0 -75 -70 0 -70
0 0 65 0 64 38 6 c20 4 44 8 52 10 49 10 50 9 50 -70z"/>
<path d="M292 625 c0 -16 2 -22 5 -12 2 9 2 23 0 30 -3 6 -5 -1 -5 -18z"/>
<path d="M291 573 c-1 -21 3 -23 42 -21 l42 1 -37 4 c-24 3 -38 10 -41 21 -3
12 -5 11 -6 -5z"/>
<path d="M260 426 c0 -83 -4 -79 85 -91 28 -3 60 -9 73 -12 22 -5 22 -3 22 86
l0 91 -90 0 -90 0 0 -74z m160 -17 l0 -71 -47 7 c-97 13 -93 11 -93 76 l0 59
70 0 70 0 0 -71z"/>
<path d="M291 448 c1 -17 3 -18 6 -6 3 11 17 18 41 21 l37 4 -42 1 c-39 2 -43
0 -42 -20z"/>
<path d="M403 430 c0 -25 2 -35 4 -22 2 12 2 32 0 45 -2 12 -4 2 -4 -23z"/>
<path d="M401 364 c0 -11 3 -14 6 -6 3 7 2 16 -1 19 -3 4 -6 -2 -5 -13z"/>
<path d="M460 410 c0 -49 1 -90 3 -91 52 -10 239 -34 242 -31 3 3 5 52 5 109
l0 103 -125 0 -125 0 0 -90z m230 -20 c0 -49 -3 -90 -7 -90 -8 0 -113 16 -170
25 l-33 6 0 74 0 75 105 0 105 0 0 -90z"/>
<path d="M492 428 l1 -43 4 37 c4 33 8 37 36 41 31 4 31 4 -5 5 l-38 2 2 -42z"/>
<path d="M595 460 c28 -12 45 -12 45 0 0 6 -15 10 -32 9 -28 0 -30 -2 -13 -9z"/>
</g>
</svg>
