<?xml version="1.0" encoding="UTF-8"?>
<!DOCTYPE svg PUBLIC "-//W3C//DTD SVG 1.1//EN" "http://www.w3.org/Graphics/SVG/1.1/DTD/svg11.dtd">
<svg xmlns="http://www.w3.org/2000/svg" version="1.1" width="100px" height="100px" style="shape-rendering:geometricPrecision; text-rendering:geometricPrecision; image-rendering:optimizeQuality; fill-rule:evenodd; clip-rule:evenodd" xmlns:xlink="http://www.w3.org/1999/xlink">
<g><path style="opacity:0.907" fill="#f0bc19" d="M 79.5,10.5 C 86.1584,9.34448 88.1584,11.8445 85.5,18C 78.7496,19.4689 76.7496,16.9689 79.5,10.5 Z"/></g>
<g><path style="opacity:0.766" fill="#f0bc18" d="M 75.5,11.5 C 77.337,11.6395 77.6704,12.3061 76.5,13.5C 75.7025,13.0431 75.3691,12.3764 75.5,11.5 Z"/></g>
<g><path style="opacity:0.984" fill="#e3eab4" d="M 78.5,73.5 C 77.8333,73.5 77.5,73.8333 77.5,74.5C 67.4123,85.0265 55.079,88.8598 40.5,86C 29.4791,83.0176 21.4791,76.5176 16.5,66.5C 19.9157,61.513 18.5824,58.8463 12.5,58.5C 10.8095,26.0234 26.1429,10.8568 58.5,13C 80.274,20.3598 89.4407,35.5265 86,58.5C 84.541,64.0848 82.041,69.0848 78.5,73.5 Z"/></g>
<g><path style="opacity:0.926" fill="#88ae44" d="M 84.5,21.5 C 85.8333,21.5 87.1667,21.5 88.5,21.5C 88.5,22.8333 88.5,24.1667 88.5,25.5C 87.1667,25.5 85.8333,25.5 84.5,25.5C 84.5,24.1667 84.5,22.8333 84.5,21.5 Z"/></g>
<g><path style="opacity:1" fill="#d38486" d="M 60.5,43.5 C 58.8333,43.5 57.1667,43.5 55.5,43.5C 54.391,43.4431 53.391,43.1098 52.5,42.5C 53.5,40.8333 54.8333,39.5 56.5,38.5C 57.7211,39.4646 59.0544,39.298 60.5,38C 61.3128,36.6861 62.3128,35.5195 63.5,34.5C 62.9747,33.8076 62.3081,33.3076 61.5,33C 63.2826,31.9335 63.7826,30.4335 63,28.5C 60.9783,27.0091 59.3117,27.3424 58,29.5C 56.7299,27.1639 55.2299,27.1639 53.5,29.5C 52.7542,30.7362 52.4208,32.0695 52.5,33.5C 51.5,35.1667 50.1667,36.5 48.5,37.5C 47.5655,36.4324 47.2322,35.099 47.5,33.5C 42.1667,33.1667 42.1667,32.8333 47.5,32.5C 47.3573,30.7376 47.6906,29.0709 48.5,27.5C 50.1667,26.5 51.5,25.1667 52.5,23.5C 54.0709,22.6906 55.7376,22.3573 57.5,22.5C 57.8333,17.1667 58.1667,17.1667 58.5,22.5C 68.1623,24.4894 70.9957,30.156 67,39.5C 65.3621,41.7337 63.1955,43.067 60.5,43.5 Z"/></g>
<g><path style="opacity:1" fill="#e03f52" d="M 56.5,38.5 C 60.3325,35.724 60.3325,33.0573 56.5,30.5C 55.1482,31.5244 53.8149,32.5244 52.5,33.5C 52.4208,32.0695 52.7542,30.7362 53.5,29.5C 55.2299,27.1639 56.7299,27.1639 58,29.5C 59.3117,27.3424 60.9783,27.0091 63,28.5C 63.7826,30.4335 63.2826,31.9335 61.5,33C 62.3081,33.3076 62.9747,33.8076 63.5,34.5C 62.3128,35.5195 61.3128,36.6861 60.5,38C 59.0544,39.298 57.7211,39.4646 56.5,38.5 Z"/></g>
<g><path style="opacity:1" fill="#a59c7c" d="M 55.5,43.5 C 57.1667,43.5 58.8333,43.5 60.5,43.5C 59.3129,44.5336 58.4796,45.867 58,47.5C 57.5204,45.867 56.6871,44.5336 55.5,43.5 Z"/></g>
<g><path style="opacity:1" fill="#fcfcf7" d="M 16.5,48.5 C 20.1612,48.3501 21.1612,49.8501 19.5,53C 15.7071,53.4866 14.7071,51.9866 16.5,48.5 Z"/></g>
<g><path style="opacity:1" fill="#5e433e" d="M 56.5,38.5 C 54.8333,39.5 53.5,40.8333 52.5,42.5C 44.1594,50.6741 35.6594,58.6741 27,66.5C 25.9701,66.1639 25.4701,65.4972 25.5,64.5C 24.4265,63.7494 24.2599,62.7494 25,61.5C 33.0358,53.6316 40.8691,45.6316 48.5,37.5C 50.1667,36.5 51.5,35.1667 52.5,33.5C 53.8149,32.5244 55.1482,31.5244 56.5,30.5C 60.3325,33.0573 60.3325,35.724 56.5,38.5 Z"/></g>
<g><path style="opacity:1" fill="#9b99bf" d="M 49.5,40.5 C 50.1667,40.5 50.5,40.8333 50.5,41.5C 43.3692,49.1316 36.0358,56.6316 28.5,64C 27.552,64.4828 26.552,64.6495 25.5,64.5C 32.2399,56.2552 39.5732,48.4218 47.5,41C 48.0944,40.5357 48.7611,40.369 49.5,40.5 Z"/></g>
<g><path style="opacity:1" fill="#e8b41a" d="M 50.5,41.5 C 50.5,40.8333 50.1667,40.5 49.5,40.5C 51.1314,36.6956 53.7981,34.1956 57.5,33C 57.8333,33.3333 58.1667,33.6667 58.5,34C 55.9638,36.705 53.2971,39.205 50.5,41.5 Z"/></g>
<g><path style="opacity:1" fill="#c58381" d="M 67.5,47.5 C 68.7709,49.1086 69.7709,50.9419 70.5,53C 72.2464,53.4709 73.913,54.1376 75.5,55C 71,55.5 68.5,58 68,62.5C 67.1376,60.913 66.4709,59.2464 66,57.5C 64.1839,56.6705 62.3506,55.8372 60.5,55C 65.1519,54.519 67.4852,52.019 67.5,47.5 Z"/></g>
<g><path style="opacity:0.904" fill="#facd5a" d="M 12.5,58.5 C 18.5824,58.8463 19.9157,61.513 16.5,66.5C 10.9334,67.2468 9.10005,64.9134 11,59.5C 11.3826,58.944 11.8826,58.6107 12.5,58.5 Z"/></g>
<g><path style="opacity:1" fill="#b9827b" d="M 50.5,59.5 C 52.1765,60.1834 52.8432,61.5168 52.5,63.5C 56.9707,63.6724 57.3041,64.5057 53.5,66C 52.3439,70.1009 51.1773,70.2676 50,66.5C 45.3333,65.1667 45.3333,63.8333 50,62.5C 50.4828,61.552 50.6495,60.552 50.5,59.5 Z"/></g>
<g><path style="opacity:1" fill="#af5250" d="M 64.5,69.5 C 65.6464,71.475 67.313,72.975 69.5,74C 67.3333,74.8333 65.8333,76.3333 65,78.5C 64.1667,76.3333 62.6667,74.8333 60.5,74C 62.751,73.2525 64.0844,71.7525 64.5,69.5 Z"/></g>
<g><path style="opacity:0.835" fill="#fbcf5a" d="M 77.5,74.5 C 77.5,73.8333 77.8333,73.5 78.5,73.5C 79.8333,73.5 81.1667,73.5 82.5,73.5C 82.5,74.8333 82.5,76.1667 82.5,77.5C 81.1667,77.5 79.8333,77.5 78.5,77.5C 78.7373,76.209 78.404,75.209 77.5,74.5 Z"/></g>
<g><path style="opacity:0.926" fill="#88ae44" d="M 22.5,84.5 C 23.8333,84.5 25.1667,84.5 26.5,84.5C 26.5,85.8333 26.5,87.1667 26.5,88.5C 25.1667,88.5 23.8333,88.5 22.5,88.5C 22.5,87.1667 22.5,85.8333 22.5,84.5 Z"/></g>
</svg>
