<?xml version="1.0" encoding="UTF-8"?>
<!DOCTYPE svg PUBLIC "-//W3C//DTD SVG 1.1//EN" "http://www.w3.org/Graphics/SVG/1.1/DTD/svg11.dtd">
<svg xmlns="http://www.w3.org/2000/svg" version="1.1" width="100px" height="100px" style="shape-rendering:geometricPrecision; text-rendering:geometricPrecision; image-rendering:optimizeQuality; fill-rule:evenodd; clip-rule:evenodd" xmlns:xlink="http://www.w3.org/1999/xlink">
<g><path style="opacity:0.907" fill="#f0bc19" d="M 79.5,10.5 C 86.1584,9.34448 88.1584,11.8445 85.5,18C 78.7496,19.4689 76.7496,16.9689 79.5,10.5 Z"/></g>
<g><path style="opacity:0.766" fill="#f0bc18" d="M 75.5,11.5 C 77.337,11.6395 77.6704,12.3061 76.5,13.5C 75.7025,13.0431 75.3691,12.3764 75.5,11.5 Z"/></g>
<g><path style="opacity:0.984" fill="#fadea1" d="M 79.5,73.5 C 78.8333,73.5 78.5,73.8333 78.5,74.5C 60.5249,90.6657 42.0249,91.3324 23,76.5C 20.1903,73.5355 18.0236,70.2022 16.5,66.5C 19.757,62.1842 18.757,59.5175 13.5,58.5C 9.96825,35.3941 19.3016,20.2274 41.5,13C 71.3208,10.8223 86.4874,24.6557 87,54.5C 85.9514,61.4926 83.4514,67.8259 79.5,73.5 Z"/></g>
<g><path style="opacity:0.878" fill="#ed3e53" d="M 84.5,21.5 C 85.8333,21.5 87.1667,21.5 88.5,21.5C 88.5,22.8333 88.5,24.1667 88.5,25.5C 87.1667,25.5 85.8333,25.5 84.5,25.5C 84.5,24.1667 84.5,22.8333 84.5,21.5 Z"/></g>
<g><path style="opacity:0.878" fill="#ed3e53" d="M 10.5,26.5 C 11.8333,26.5 13.1667,26.5 14.5,26.5C 14.5,27.8333 14.5,29.1667 14.5,30.5C 13.1667,30.5 11.8333,30.5 10.5,30.5C 10.5,29.1667 10.5,27.8333 10.5,26.5 Z"/></g>
<g><path style="opacity:1" fill="#56423c" d="M 28.5,46.5 C 25.8562,44.484 25.0228,41.8173 26,38.5C 27.8521,33.4458 30.6854,29.1125 34.5,25.5C 40.6195,30.4026 43.4528,36.7359 43,44.5C 40.1034,49.1549 35.9367,50.6549 30.5,49C 29.6195,48.2917 28.9528,47.4584 28.5,46.5 Z"/></g>
<g><path style="opacity:1" fill="#49b5ce" d="M 33.5,48.5 C 36.0983,47.5278 36.0983,46.5278 33.5,45.5C 32.8902,44.609 32.5569,43.609 32.5,42.5C 32.2601,39.4212 32.5934,36.4212 33.5,33.5C 32.7573,32.8182 32.0906,32.1515 31.5,31.5C 32.3484,29.4931 33.6817,28.3265 35.5,28C 38.8785,31.7562 41.2118,36.0895 42.5,41C 41.7807,46.2182 38.7807,48.7182 33.5,48.5 Z"/></g>
<g><path style="opacity:1" fill="#584641" d="M 66.5,37.5 C 67.5726,32.1921 69.7393,31.5255 73,35.5C 77.6947,42.9097 75.8613,46.743 67.5,47C 64.0213,44.0053 63.688,40.8386 66.5,37.5 Z"/></g>
<g><path style="opacity:1" fill="#49b4cc" d="M 66.5,37.5 C 70.6788,33.8828 73.0122,35.2162 73.5,41.5C 72.355,47.1589 69.855,47.8256 66,43.5C 65.5099,41.4546 65.6765,39.4546 66.5,37.5 Z"/></g>
<g><path style="opacity:1" fill="#ebebec" d="M 32.5,42.5 C 32.5569,43.609 32.8902,44.609 33.5,45.5C 32.5041,45.5858 31.6708,45.2524 31,44.5C 30.3333,41.8333 30.3333,39.1667 31,36.5C 31.1909,38.7078 31.6909,40.7078 32.5,42.5 Z"/></g>
<g><path style="opacity:1" fill="#5ea2b3" d="M 31.5,31.5 C 32.0906,32.1515 32.7573,32.8182 33.5,33.5C 32.5934,36.4212 32.2601,39.4212 32.5,42.5C 31.6909,40.7078 31.1909,38.7078 31,36.5C 30.3333,39.1667 30.3333,41.8333 31,44.5C 31.6708,45.2524 32.5041,45.5858 33.5,45.5C 36.0983,46.5278 36.0983,47.5278 33.5,48.5C 31.8333,47.8333 30.1667,47.1667 28.5,46.5C 26.6357,40.8615 27.6357,35.8615 31.5,31.5 Z"/></g>
<g><path style="opacity:1" fill="#fefbf5" d="M 16.5,50.5 C 20.1612,50.3501 21.1612,51.8501 19.5,55C 15.7071,55.4866 14.7071,53.9866 16.5,50.5 Z"/></g>
<g><path style="opacity:0.903" fill="#fbcd5a" d="M 13.5,58.5 C 18.757,59.5175 19.757,62.1842 16.5,66.5C 10.9334,67.2468 9.10005,64.9134 11,59.5C 11.6708,58.7476 12.5041,58.4142 13.5,58.5 Z"/></g>
<g><path style="opacity:1" fill="#f3c439" d="M 19.5,65.5 C 21.337,65.6395 21.6704,66.3061 20.5,67.5C 19.7025,67.0431 19.3691,66.3764 19.5,65.5 Z"/></g>
<g><path style="opacity:0.835" fill="#facc58" d="M 79.5,73.5 C 80.5,73.5 81.5,73.5 82.5,73.5C 82.5,74.8333 82.5,76.1667 82.5,77.5C 81.1667,77.5 79.8333,77.5 78.5,77.5C 78.5,76.5 78.5,75.5 78.5,74.5C 78.5,73.8333 78.8333,73.5 79.5,73.5 Z"/></g>
<g><path style="opacity:1" fill="#5a4640" d="M 42.5,54.5 C 44.6587,49.3316 47.6587,44.6649 51.5,40.5C 52.365,39.4173 53.365,39.2506 54.5,40C 59.4606,46.3061 63.6272,53.1394 67,60.5C 67.3939,76.7733 59.8939,82.2733 44.5,77C 37.4321,69.9772 36.7654,62.4772 42.5,54.5 Z"/></g>
<g><path style="opacity:1" fill="#4ab6ce" d="M 42.5,54.5 C 45.7567,50.0655 49.2567,45.7322 53,41.5C 60.5766,48.6531 64.91,57.3198 66,67.5C 62.2754,77.4152 55.4421,80.2485 45.5,76C 40.7409,71.5092 39.2409,66.0092 41,59.5C 42.0086,57.9751 42.5086,56.3084 42.5,54.5 Z"/></g>
<g><path style="opacity:1" fill="#77898f" d="M 47.5,67.5 C 46.8333,63.8333 46.1667,60.1667 45.5,56.5C 45.6854,54.8042 46.5187,53.4709 48,52.5C 47.6127,57.4134 47.446,62.4134 47.5,67.5 Z"/></g>
<g><path style="opacity:1" fill="#f2f3f3" d="M 45.5,56.5 C 46.1667,60.1667 46.8333,63.8333 47.5,67.5C 51.3977,76.4628 50.231,76.7961 44,68.5C 43.0805,64.2686 43.5805,60.2686 45.5,56.5 Z"/></g>
<g><path style="opacity:0.878" fill="#ed3e53" d="M 22.5,84.5 C 23.8333,84.5 25.1667,84.5 26.5,84.5C 26.5,85.8333 26.5,87.1667 26.5,88.5C 25.1667,88.5 23.8333,88.5 22.5,88.5C 22.5,87.1667 22.5,85.8333 22.5,84.5 Z"/></g>
</svg>
