<?xml version="1.0" encoding="UTF-8"?>
<!DOCTYPE svg PUBLIC "-//W3C//DTD SVG 1.1//EN" "http://www.w3.org/Graphics/SVG/1.1/DTD/svg11.dtd">
<svg xmlns="http://www.w3.org/2000/svg" version="1.1" width="100px" height="100px" style="shape-rendering:geometricPrecision; text-rendering:geometricPrecision; image-rendering:optimizeQuality; fill-rule:evenodd; clip-rule:evenodd" xmlns:xlink="http://www.w3.org/1999/xlink">
<g><path style="opacity:0.888" fill="#f0bb18" d="M 77.5,13.5 C 79.3623,10.6699 82.0289,9.83657 85.5,11C 87.6038,15.3114 86.4371,18.1447 82,19.5C 79.2888,18.4118 77.7888,16.4118 77.5,13.5 Z"/></g>
<g><path style="opacity:0.746" fill="#f4b417" d="M 77.5,13.5 C 76.1329,14.8526 75.1329,14.5193 74.5,12.5C 76.0517,11.2021 77.0517,11.5354 77.5,13.5 Z"/></g>
<g><path style="opacity:0.988" fill="#cde0f2" d="M 78.5,73.5 C 77.8333,73.5 77.5,73.8333 77.5,74.5C 77.5,74.8333 77.5,75.1667 77.5,75.5C 57.8479,91.4872 38.6813,90.8205 20,73.5C 18.295,71.4234 17.1283,69.09 16.5,66.5C 19.9157,61.513 18.5824,58.8463 12.5,58.5C 10.5871,26.5797 25.5871,11.413 57.5,13C 82.5324,21.5598 91.3658,38.7265 84,64.5C 82.3382,67.6493 80.5048,70.6493 78.5,73.5 Z"/></g>
<g><path style="opacity:0.792" fill="#789ed1" d="M 84.5,21.5 C 85.8333,21.5 87.1667,21.5 88.5,21.5C 88.0342,26.5837 86.3675,27.2504 83.5,23.5C 83.8627,22.8165 84.1961,22.1499 84.5,21.5 Z"/></g>
<g><path style="opacity:1" fill="#60433e" d="M 57.5,32.5 C 56.7611,32.369 56.0944,32.5357 55.5,33C 57.6462,35.7948 58.8128,38.9614 59,42.5C 59.2784,41.5842 59.7784,40.9175 60.5,40.5C 60.5228,42.5996 59.8561,44.4329 58.5,46C 59.0556,47.0111 59.7222,47.8444 60.5,48.5C 57.8333,49.5 57.8333,50.5 60.5,51.5C 59.032,52.7791 58.3653,54.4458 58.5,56.5C 63.3633,56.1805 68.03,56.5139 72.5,57.5C 67.8333,57.5 63.1667,57.5 58.5,57.5C 58.5,58.8333 58.5,60.1667 58.5,61.5C 63.3633,61.1805 68.03,61.5139 72.5,62.5C 59.4957,62.6666 46.4957,62.4999 33.5,62C 19.8328,55.3317 16.3328,45.165 23,31.5C 30.9257,22.6886 40.0924,21.1886 50.5,27C 52.6139,29.2797 54.9472,31.113 57.5,32.5 Z"/></g>
<g><path style="opacity:1" fill="#d4404c" d="M 56.5,39.5 C 56.5,46.5 56.5,53.5 56.5,60.5C 49.5,60.5 42.5,60.5 35.5,60.5C 26.425,58.2523 21.425,52.419 20.5,43C 22.4698,30.358 29.8031,24.358 42.5,25C 50.093,27.0916 54.7596,31.925 56.5,39.5 Z"/></g>
<g><path style="opacity:0.792" fill="#789ed1" d="M 10.5,26.5 C 11.8333,26.5 13.1667,26.5 14.5,26.5C 14.0342,31.5837 12.3675,32.2504 9.5,28.5C 9.86273,27.8165 10.1961,27.1499 10.5,26.5 Z"/></g>
<g><path style="opacity:1" fill="#ecb71a" d="M 46.5,30.5 C 47.8333,32.5 49.5,34.1667 51.5,35.5C 55.1206,52.3664 48.4539,59.0331 31.5,55.5C 30.1667,53.5 28.5,51.8333 26.5,50.5C 25.9862,48.6336 25.3195,46.8003 24.5,45C 25.3223,42.5661 25.6556,40.0661 25.5,37.5C 26.9063,37.0269 27.573,36.0269 27.5,34.5C 28.3065,33.2719 29.3065,32.2719 30.5,31.5C 32.0269,31.573 33.0269,30.9063 33.5,29.5C 37.8311,28.8259 42.1644,29.1593 46.5,30.5 Z"/></g>
<g><path style="opacity:1" fill="#815629" d="M 33.5,29.5 C 33.0269,30.9063 32.0269,31.573 30.5,31.5C 30.9731,30.0937 31.9731,29.427 33.5,29.5 Z"/></g>
<g><path style="opacity:1" fill="#7e3b32" d="M 46.5,30.5 C 49.1667,31.1667 50.8333,32.8333 51.5,35.5C 49.5,34.1667 47.8333,32.5 46.5,30.5 Z"/></g>
<g><path style="opacity:1" fill="#766157" d="M 57.5,32.5 C 62.5167,33.8911 63.5167,36.5578 60.5,40.5C 59.7784,40.9175 59.2784,41.5842 59,42.5C 58.8128,38.9614 57.6462,35.7948 55.5,33C 56.0944,32.5357 56.7611,32.369 57.5,32.5 Z"/></g>
<g><path style="opacity:1" fill="#72462b" d="M 27.5,34.5 C 27.573,36.0269 26.9063,37.0269 25.5,37.5C 25.427,35.9731 26.0937,34.9731 27.5,34.5 Z"/></g>
<g><path style="opacity:1" fill="#d3867d" d="M 34.5,34.5 C 37.5,34.5 40.5,34.5 43.5,34.5C 43.5,35.5 43.5,36.5 43.5,37.5C 41.5,37.5 39.5,37.5 37.5,37.5C 37.5,38.5 37.5,39.5 37.5,40.5C 44.5701,41.4067 46.2368,44.9067 42.5,51C 36.8674,52.9891 33.8674,51.1558 33.5,45.5C 35.6719,46.8011 38.0052,47.8011 40.5,48.5C 40.5,46.8333 40.5,45.1667 40.5,43.5C 38.5,43.5 36.5,43.5 34.5,43.5C 34.5,40.5 34.5,37.5 34.5,34.5 Z"/></g>
<g><path style="opacity:1" fill="#b18624" d="M 60.5,48.5 C 60.5,49.5 60.5,50.5 60.5,51.5C 57.8333,50.5 57.8333,49.5 60.5,48.5 Z"/></g>
<g><path style="opacity:1" fill="#7c3c32" d="M 26.5,50.5 C 28.5,51.8333 30.1667,53.5 31.5,55.5C 28.8333,54.8333 27.1667,53.1667 26.5,50.5 Z"/></g>
<g><path style="opacity:1" fill="#e0ae1e" d="M 72.5,57.5 C 73.8333,58.1667 74.8333,59.1667 75.5,60.5C 75.7678,62.099 75.4345,63.4324 74.5,64.5C 74.1667,63.5 73.5,62.8333 72.5,62.5C 68.03,61.5139 63.3633,61.1805 58.5,61.5C 58.5,60.1667 58.5,58.8333 58.5,57.5C 63.1667,57.5 67.8333,57.5 72.5,57.5 Z"/></g>
<g><path style="opacity:0.939" fill="#f9cd5e" d="M 12.5,58.5 C 18.5824,58.8463 19.9157,61.513 16.5,66.5C 13.047,67.5996 10.7137,66.2663 9.5,62.5C 10.0351,60.739 11.0351,59.4057 12.5,58.5 Z"/></g>
<g><path style="opacity:1" fill="#a63540" d="M 56.5,39.5 C 57.4916,46.6476 57.825,53.9809 57.5,61.5C 49.9809,61.825 42.6476,61.4916 35.5,60.5C 42.5,60.5 49.5,60.5 56.5,60.5C 56.5,53.5 56.5,46.5 56.5,39.5 Z"/></g>
<g><path style="opacity:1" fill="#e8c657" d="M 19.5,60.5 C 21.337,60.6395 21.6704,61.3061 20.5,62.5C 19.7025,62.0431 19.3691,61.3764 19.5,60.5 Z"/></g>
<g><path style="opacity:1" fill="#8a8081" d="M 34.5,67.5 C 33.7321,66.7375 33.2321,65.7375 33,64.5C 32.502,67.4816 32.3354,70.4816 32.5,73.5C 31.5206,70.3752 31.1872,67.0419 31.5,63.5C 32.5,63.5 33.5,63.5 34.5,63.5C 34.5,64.8333 34.5,66.1667 34.5,67.5 Z"/></g>
<g><path style="opacity:1" fill="#c9c7ba" d="M 34.5,67.5 C 35.3414,69.3792 35.6747,71.3792 35.5,73.5C 34.5,73.5 33.5,73.5 32.5,73.5C 32.3354,70.4816 32.502,67.4816 33,64.5C 33.2321,65.7375 33.7321,66.7375 34.5,67.5 Z"/></g>
<g><path style="opacity:1" fill="#88735a" d="M 75.5,60.5 C 76.8333,63.8333 76.8333,67.1667 75.5,70.5C 75.7678,68.901 75.4345,67.5676 74.5,66.5C 74.5,65.8333 74.5,65.1667 74.5,64.5C 75.4345,63.4324 75.7678,62.099 75.5,60.5 Z"/></g>
<g><path style="opacity:1" fill="#e4b11b" d="M 74.5,66.5 C 75.4345,67.5676 75.7678,68.901 75.5,70.5C 74.5,71.5 73.5,72.5 72.5,73.5C 60.5,73.5 48.5,73.5 36.5,73.5C 36.5,72.1667 36.5,70.8333 36.5,69.5C 48.6783,69.8284 60.6783,69.4951 72.5,68.5C 73.5,68.1667 74.1667,67.5 74.5,66.5 Z"/></g>
<g><path style="opacity:1" fill="#947e5a" d="M 34.5,67.5 C 47.117,68.4615 59.7836,68.7949 72.5,68.5C 60.6783,69.4951 48.6783,69.8284 36.5,69.5C 36.5,70.8333 36.5,72.1667 36.5,73.5C 48.5,73.5 60.5,73.5 72.5,73.5C 59.1667,74.8333 45.8333,74.8333 32.5,73.5C 33.5,73.5 34.5,73.5 35.5,73.5C 35.6747,71.3792 35.3414,69.3792 34.5,67.5 Z"/></g>
<g><path style="opacity:0.84" fill="#fbcf5a" d="M 78.5,73.5 C 79.8333,73.5 81.1667,73.5 82.5,73.5C 81.9915,78.6072 80.3248,79.2739 77.5,75.5C 77.5,75.1667 77.5,74.8333 77.5,74.5C 78.1667,74.5 78.5,74.1667 78.5,73.5 Z"/></g>
<g><path style="opacity:0.792" fill="#789ed1" d="M 22.5,84.5 C 23.8333,84.5 25.1667,84.5 26.5,84.5C 26.0342,89.5837 24.3675,90.2504 21.5,86.5C 21.8627,85.8165 22.1961,85.1499 22.5,84.5 Z"/></g>
</svg>
