<?xml version="1.0" encoding="UTF-8"?>
<!DOCTYPE svg PUBLIC "-//W3C//DTD SVG 1.1//EN" "http://www.w3.org/Graphics/SVG/1.1/DTD/svg11.dtd">
<svg xmlns="http://www.w3.org/2000/svg" version="1.1" width="100px" height="100px" style="shape-rendering:geometricPrecision; text-rendering:geometricPrecision; image-rendering:optimizeQuality; fill-rule:evenodd; clip-rule:evenodd" xmlns:xlink="http://www.w3.org/1999/xlink">
<g><path style="opacity:0.907" fill="#f0bc19" d="M 79.5,10.5 C 86.1584,9.34448 88.1584,11.8445 85.5,18C 78.7496,19.4689 76.7496,16.9689 79.5,10.5 Z"/></g>
<g><path style="opacity:0.766" fill="#f0bc18" d="M 75.5,11.5 C 77.337,11.6395 77.6704,12.3061 76.5,13.5C 75.7025,13.0431 75.3691,12.3764 75.5,11.5 Z"/></g>
<g><path style="opacity:0.978" fill="#e4ebb5" d="M 78.5,73.5 C 77.8333,73.5 77.5,73.8333 77.5,74.5C 67.4123,85.0265 55.079,88.8598 40.5,86C 29.4791,83.0176 21.4791,76.5176 16.5,66.5C 19.9157,61.513 18.5824,58.8463 12.5,58.5C 10.8095,26.0234 26.1429,10.8568 58.5,13C 80.274,20.3598 89.4407,35.5265 86,58.5C 84.541,64.0848 82.041,69.0848 78.5,73.5 Z"/></g>
<g><path style="opacity:0.926" fill="#88ae44" d="M 84.5,21.5 C 85.8333,21.5 87.1667,21.5 88.5,21.5C 88.5,22.8333 88.5,24.1667 88.5,25.5C 87.1667,25.5 85.8333,25.5 84.5,25.5C 84.5,24.1667 84.5,22.8333 84.5,21.5 Z"/></g>
<g><path style="opacity:1" fill="#65ae83" d="M 39.5,49.5 C 39.238,48.0222 39.5713,46.6888 40.5,45.5C 43.4045,47.6324 46.4045,47.9657 49.5,46.5C 51.4707,44.1918 53.4707,41.8585 55.5,39.5C 53.8042,39.6854 52.4709,40.5187 51.5,42C 49.1667,42.6667 46.8333,42.6667 44.5,42C 42.0993,39.9376 39.4326,38.2709 36.5,37C 38.3959,35.1917 38.8959,33.025 38,30.5C 37.3292,29.7476 36.4959,29.4142 35.5,29.5C 34.9094,28.8485 34.2427,28.1818 33.5,27.5C 33.7093,26.914 34.0426,26.414 34.5,26C 46.1667,25.3333 57.8333,25.3333 69.5,26C 70.4817,33.747 70.815,41.5803 70.5,49.5C 60.1667,49.5 49.8333,49.5 39.5,49.5 Z"/></g>
<g><path style="opacity:1" fill="#492e2b" d="M 71.5,50.5 C 60.6536,50.1722 49.9869,50.5056 39.5,51.5C 39.5,52.1667 39.5,52.8333 39.5,53.5C 50.1667,54.1667 60.8333,54.8333 71.5,55.5C 60.8333,55.5 50.1667,55.5 39.5,55.5C 39.8195,60.3633 39.4861,65.03 38.5,69.5C 38.176,62.6457 38.5093,55.979 39.5,49.5C 49.8333,49.5 60.1667,49.5 70.5,49.5C 70.815,41.5803 70.4817,33.747 69.5,26C 57.8333,25.3333 46.1667,25.3333 34.5,26C 34.0426,26.414 33.7093,26.914 33.5,27.5C 34.2427,28.1818 34.9094,28.8485 35.5,29.5C 34.5,29.5 33.5,29.5 32.5,29.5C 32.2865,27.8561 32.6198,26.3561 33.5,25C 45.8333,24.3333 58.1667,24.3333 70.5,25C 71.4832,33.4149 71.8166,41.9149 71.5,50.5 Z"/></g>
<g><path style="opacity:1" fill="#472d2a" d="M 63.5,29.5 C 64.9187,28.5489 66.5853,28.2155 68.5,28.5C 68.6653,32.1817 68.4986,35.8484 68,39.5C 67.5017,36.1832 67.335,32.8499 67.5,29.5C 66.1667,29.5 64.8333,29.5 63.5,29.5 Z"/></g>
<g><path style="opacity:1" fill="#576b55" d="M 55.5,39.5 C 56.7927,37.7041 58.2927,36.0375 60,34.5C 59.8228,37.1858 58.3228,38.8524 55.5,39.5 Z"/></g>
<g><path style="opacity:1" fill="#49b6cf" d="M 49.5,45.5 C 45.277,45.6606 41.277,44.994 37.5,43.5C 38.1364,52.5645 37.4698,61.2312 35.5,69.5C 35.5,64.5 35.5,59.5 35.5,54.5C 34.5,54.5 33.5,54.5 32.5,54.5C 33.1083,59.9443 32.4417,64.9443 30.5,69.5C 30.6664,60.8269 30.4998,52.1603 30,43.5C 29.8253,47.211 29.3253,50.8776 28.5,54.5C 24.3005,43.2272 27.9672,38.3939 39.5,40C 42.7591,42.3202 46.0924,44.1535 49.5,45.5 Z"/></g>
<g><path style="opacity:1" fill="#544741" d="M 32.5,29.5 C 33.5,29.5 34.5,29.5 35.5,29.5C 36.4959,29.4142 37.3292,29.7476 38,30.5C 38.8959,33.025 38.3959,35.1917 36.5,37C 39.4326,38.2709 42.0993,39.9376 44.5,42C 46.8333,42.6667 49.1667,42.6667 51.5,42C 52.4709,40.5187 53.8042,39.6854 55.5,39.5C 53.4707,41.8585 51.4707,44.1918 49.5,46.5C 49.5,46.1667 49.5,45.8333 49.5,45.5C 46.0924,44.1535 42.7591,42.3202 39.5,40C 27.9672,38.3939 24.3005,43.2272 28.5,54.5C 29.3253,50.8776 29.8253,47.211 30,43.5C 30.4998,52.1603 30.6664,60.8269 30.5,69.5C 30.1667,69.5 29.8333,69.5 29.5,69.5C 28.5211,62.6474 27.5211,55.6474 26.5,48.5C 25.4593,43.4568 27.126,39.6235 31.5,37C 29.6041,35.1917 29.1041,33.025 30,30.5C 30.6708,29.7476 31.5041,29.4142 32.5,29.5 Z"/></g>
<g><path style="opacity:1" fill="#f6d4b6" d="M 31.5,30.5 C 33.1667,30.5 34.8333,30.5 36.5,30.5C 36.5,32.1667 36.5,33.8333 36.5,35.5C 34.8333,35.5 33.1667,35.5 31.5,35.5C 31.5,33.8333 31.5,32.1667 31.5,30.5 Z"/></g>
<g><path style="opacity:1" fill="#4c5757" d="M 49.5,45.5 C 49.5,45.8333 49.5,46.1667 49.5,46.5C 46.4045,47.9657 43.4045,47.6324 40.5,45.5C 39.5713,46.6888 39.238,48.0222 39.5,49.5C 38.5093,55.979 38.176,62.6457 38.5,69.5C 37.5,70.8333 36.5,70.8333 35.5,69.5C 37.4698,61.2312 38.1364,52.5645 37.5,43.5C 41.277,44.994 45.277,45.6606 49.5,45.5 Z"/></g>
<g><path style="opacity:1" fill="#fcfcf7" d="M 16.5,48.5 C 20.1612,48.3501 21.1612,49.8501 19.5,53C 15.7071,53.4866 14.7071,51.9866 16.5,48.5 Z"/></g>
<g><path style="opacity:1" fill="#ebad6e" d="M 39.5,51.5 C 82.1667,52.1667 82.1667,52.8333 39.5,53.5C 39.5,52.8333 39.5,52.1667 39.5,51.5 Z"/></g>
<g><path style="opacity:1" fill="#a37451" d="M 39.5,51.5 C 49.9869,50.5056 60.6536,50.1722 71.5,50.5C 74.0479,52.0378 74.0479,53.7044 71.5,55.5C 60.8333,54.8333 50.1667,54.1667 39.5,53.5C 82.1667,52.8333 82.1667,52.1667 39.5,51.5 Z"/></g>
<g><path style="opacity:1" fill="#513b36" d="M 35.5,69.5 C 34.6862,67.369 34.1862,65.0356 34,62.5C 33.5026,65.146 33.3359,67.8127 33.5,70.5C 31.901,70.7678 30.5676,70.4345 29.5,69.5C 29.8333,69.5 30.1667,69.5 30.5,69.5C 32.4417,64.9443 33.1083,59.9443 32.5,54.5C 33.5,54.5 34.5,54.5 35.5,54.5C 35.5,59.5 35.5,64.5 35.5,69.5 Z"/></g>
<g><path style="opacity:0.904" fill="#facd5a" d="M 12.5,58.5 C 18.5824,58.8463 19.9157,61.513 16.5,66.5C 10.9334,67.2468 9.10005,64.9134 11,59.5C 11.3826,58.944 11.8826,58.6107 12.5,58.5 Z"/></g>
<g><path style="opacity:1" fill="#5a413e" d="M 45.5,58.5 C 51.4877,58.664 52.821,61.164 49.5,66C 50.646,66.6449 51.646,67.4783 52.5,68.5C 53.354,67.4783 54.354,66.6449 55.5,66C 52.1667,61 53.5,58.6667 59.5,59C 62.1667,61.3333 62.1667,63.6667 59.5,66C 60.646,66.6449 61.646,67.4783 62.5,68.5C 63.354,67.4783 64.354,66.6449 65.5,66C 62.1667,61 63.5,58.6667 69.5,59C 72.1667,61.3333 72.1667,63.6667 69.5,66C 71.6709,67.1739 72.6709,69.0072 72.5,71.5C 62.5,71.5 52.5,71.5 42.5,71.5C 42.3291,69.0072 43.3291,67.1739 45.5,66C 42.9142,63.506 42.9142,61.006 45.5,58.5 Z"/></g>
<g><path style="opacity:1" fill="#626a98" d="M 65.5,67.5 C 67.6648,67.1159 69.3315,67.7826 70.5,69.5C 68.5,70.8333 66.5,70.8333 64.5,69.5C 64.8627,68.8165 65.1961,68.1499 65.5,67.5 Z"/></g>
<g><path style="opacity:1" fill="#626a98" d="M 55.5,67.5 C 57.6648,67.1159 59.3315,67.7826 60.5,69.5C 58.5,70.8333 56.5,70.8333 54.5,69.5C 54.8627,68.8165 55.1961,68.1499 55.5,67.5 Z"/></g>
<g><path style="opacity:1" fill="#626a98" d="M 45.5,67.5 C 47.6648,67.1159 49.3315,67.7826 50.5,69.5C 48.5,70.8333 46.5,70.8333 44.5,69.5C 44.8627,68.8165 45.1961,68.1499 45.5,67.5 Z"/></g>
<g><path style="opacity:1" fill="#fad8b9" d="M 65.5,60.5 C 66.8333,60.5 68.1667,60.5 69.5,60.5C 69.5,61.8333 69.5,63.1667 69.5,64.5C 68.1667,64.5 66.8333,64.5 65.5,64.5C 65.5,63.1667 65.5,61.8333 65.5,60.5 Z"/></g>
<g><path style="opacity:1" fill="#fad8b9" d="M 55.5,60.5 C 56.8333,60.5 58.1667,60.5 59.5,60.5C 59.5,61.8333 59.5,63.1667 59.5,64.5C 58.1667,64.5 56.8333,64.5 55.5,64.5C 55.5,63.1667 55.5,61.8333 55.5,60.5 Z"/></g>
<g><path style="opacity:1" fill="#fad8b9" d="M 45.5,60.5 C 46.8333,60.5 48.1667,60.5 49.5,60.5C 49.5,61.8333 49.5,63.1667 49.5,64.5C 48.1667,64.5 46.8333,64.5 45.5,64.5C 45.5,63.1667 45.5,61.8333 45.5,60.5 Z"/></g>
<g><path style="opacity:0.835" fill="#fbcf5a" d="M 77.5,74.5 C 77.5,73.8333 77.8333,73.5 78.5,73.5C 79.8333,73.5 81.1667,73.5 82.5,73.5C 82.5,74.8333 82.5,76.1667 82.5,77.5C 81.1667,77.5 79.8333,77.5 78.5,77.5C 78.7373,76.209 78.404,75.209 77.5,74.5 Z"/></g>
<g><path style="opacity:0.926" fill="#88ae44" d="M 22.5,84.5 C 23.8333,84.5 25.1667,84.5 26.5,84.5C 26.5,85.8333 26.5,87.1667 26.5,88.5C 25.1667,88.5 23.8333,88.5 22.5,88.5C 22.5,87.1667 22.5,85.8333 22.5,84.5 Z"/></g>
</svg>
